G04 ================== begin FILE IDENTIFICATION RECORD ==================*
G04 Layout Name:  D:/Projects/Ember/01.Hardware/02.Base/02.PCB/EmberBase.brd*
G04 Film Name:    01.TOP*
G04 File Format:  Gerber RS274X*
G04 File Origin:  Cadence Allegro 17.4-S037*
G04 Origin Date:  Sat Nov 23 18:30:32 2024*
G04 *
G04 Layer:  VIA CLASS/TOP*
G04 Layer:  PIN/TOP*
G04 Layer:  ETCH/TOP*
G04 *
G04 Offset:    (0.000 0.000)*
G04 Mirror:    No*
G04 Mode:      Positive*
G04 Rotation:  0*
G04 FullContactRelief:  No*
G04 UndefLineWidth:     5.000*
G04 ================== end FILE IDENTIFICATION RECORD ====================*
%FSLAX35Y35*MOIN*%
%IR0*IPPOS*OFA0.00000B0.00000*MIA0B0*SFA1.00000B1.00000*%
%ADD31R,.03X.04*%
%ADD16R,.032X.03*%
%ADD26R,.03X.032*%
%ADD23R,.036X.05*%
%ADD19R,.045X.05*%
%ADD14R,.173201X.110201*%
%ADD12C,.024*%
%ADD10C,.06*%
%ADD18R,.062X.0265*%
%ADD21R,.051X.069201*%
%ADD15R,.06X.06*%
%ADD11R,.070902X.0315*%
%ADD30O,.070902X.047201*%
%ADD24R,.036X.036*%
%ADD28O,.078701X.047201*%
%ADD20O,.011X.063799*%
%ADD25R,.147598X.110201*%
%ADD29R,.051201X.011799*%
%ADD13R,.063X.011799*%
%ADD27R,.051201X.059098*%
%ADD22R,.047201X.055098*%
%ADD32C,.006*%
%ADD33C,.01*%
%ADD34C,.02*%
G75*
%LPD*%
G75*
G54D10*
X13583Y10748D03*
Y20748D03*
X23583Y10748D03*
Y20748D03*
X33583Y10748D03*
Y20748D03*
Y166417D03*
Y156417D03*
X23583Y166417D03*
Y156417D03*
X13583Y166417D03*
X43583Y10748D03*
Y20748D03*
X53583Y10748D03*
Y20748D03*
Y166417D03*
Y156417D03*
X43583Y166417D03*
Y156417D03*
X63583Y20748D03*
Y10748D03*
X73583D03*
Y20748D03*
X83583Y10748D03*
Y20748D03*
Y166417D03*
Y156417D03*
X73583Y166417D03*
Y156417D03*
X63583Y166417D03*
Y156417D03*
X93583Y10748D03*
Y20748D03*
X103583Y10748D03*
Y20748D03*
X113583Y10748D03*
Y20748D03*
Y156417D03*
Y166417D03*
X103583D03*
Y156417D03*
X93583Y166417D03*
Y156417D03*
X123583Y10748D03*
Y20748D03*
X133583Y10748D03*
Y20748D03*
Y166417D03*
Y156417D03*
X123583Y166417D03*
Y156417D03*
X143583Y10748D03*
Y20748D03*
X153583Y10748D03*
Y20748D03*
X163583Y10748D03*
X161000Y108236D03*
Y118079D03*
Y127921D03*
X163583Y166417D03*
Y156417D03*
X153583Y166417D03*
Y156417D03*
X143583Y166417D03*
Y156417D03*
G54D20*
X111140Y44682D03*
X109170D03*
Y61302D03*
X111140D03*
X115080Y44682D03*
X113110D03*
X117050D03*
X113110Y61302D03*
X115080D03*
X117050D03*
G54D11*
X22442Y38742D03*
Y79528D03*
X127952Y97717D03*
Y138503D03*
G54D30*
X170740Y33970D03*
Y68030D03*
G54D21*
X91500Y62060D03*
Y75340D03*
G54D12*
X10000Y34000D03*
X20205Y61024D03*
X23600Y57088D03*
X20205Y53151D03*
X8819Y55119D03*
X23313Y49213D03*
X8955Y47245D03*
X9018Y51182D03*
X9255Y59055D03*
X8970Y66930D03*
X20205Y68899D03*
X8808Y62992D03*
X23900Y64961D03*
X22000Y73500D03*
X30000Y90000D03*
X9133Y70867D03*
X27000Y138000D03*
X35000Y34000D03*
X44000Y31000D03*
X49200Y75800D03*
X55300Y75600D03*
X37700Y73167D03*
X58000Y100000D03*
X60600Y79300D03*
X65100Y79400D03*
X83000Y123000D03*
X67000Y125000D03*
X82000Y132000D03*
X67000Y142000D03*
X74000Y145000D03*
X85600Y128400D03*
X73850Y124950D03*
X109300Y49900D03*
X90400Y69100D03*
X101800Y45300D03*
X105000Y56000D03*
X96000D03*
X106000Y65000D03*
X109950Y84550D03*
X129300Y48900D03*
X120000Y48000D03*
X117500Y67200D03*
X129500Y64660D03*
X114608Y66986D03*
X132000Y52000D03*
X131000Y60000D03*
X138000Y93000D03*
X130100Y108346D03*
X118800Y100500D03*
X130188Y116221D03*
X114000Y101693D03*
X126000Y112284D03*
X125716Y120157D03*
X129800Y102800D03*
X135000Y140000D03*
X115000Y147000D03*
X130188Y124090D03*
X129500Y131000D03*
X144200Y40300D03*
X146000Y54000D03*
X145950Y50850D03*
X141000Y78000D03*
X140100Y114253D03*
Y110315D03*
X140000Y122126D03*
X143500Y119700D03*
X140200Y106378D03*
X146000Y143000D03*
X140300Y130200D03*
X140000Y126063D03*
X168700Y5700D03*
Y28200D03*
X171000Y48000D03*
X168400Y99000D03*
X166000Y146000D03*
G54D22*
X100200Y62270D03*
Y75930D03*
G54D13*
X29528Y64961D03*
Y66930D03*
Y68899D03*
Y55119D03*
Y57088D03*
Y61024D03*
Y59055D03*
Y62992D03*
Y47245D03*
Y45276D03*
Y51182D03*
Y49213D03*
Y53151D03*
X15355Y64961D03*
Y66930D03*
Y68899D03*
Y55119D03*
Y57088D03*
Y61024D03*
Y59055D03*
Y62992D03*
Y47245D03*
Y45276D03*
Y51182D03*
Y49213D03*
Y53151D03*
X29528Y72836D03*
Y70867D03*
X15355Y72836D03*
Y70867D03*
X135038Y120157D03*
Y118190D03*
Y116221D03*
Y108346D03*
Y106378D03*
Y104409D03*
Y112284D03*
Y110315D03*
Y114253D03*
X120866Y120157D03*
Y118190D03*
Y116221D03*
Y108346D03*
Y106378D03*
Y104409D03*
Y114253D03*
Y110315D03*
Y112284D03*
X135038Y131969D03*
Y130000D03*
Y128032D03*
Y126063D03*
Y124094D03*
Y122126D03*
X120866Y131969D03*
Y130000D03*
Y128032D03*
Y126063D03*
Y124094D03*
Y122126D03*
G54D31*
X164704Y85558D03*
X171004D03*
X164704Y77684D03*
X171004D03*
X164704Y93432D03*
X171004D03*
G54D32*
G01X8808Y62992D02*
X6308D01*
X4600Y64700D01*
Y72600D01*
X6900Y74900D01*
X20147D01*
X21547Y76300D01*
X24820D01*
X25373Y76853D01*
X36153D01*
X36167Y76867D01*
X39233D01*
X39247Y76853D01*
X42427D01*
X66600Y52680D01*
Y49900D01*
X75100Y41400D01*
X103700D01*
X104300Y42000D01*
Y51136D01*
X106764Y53600D01*
X113400D01*
X115080Y51920D01*
Y44682D01*
G01X10000Y32948D02*
Y34000D01*
G01D02*
Y35376D01*
G01X8548Y34000D02*
X10000D01*
G01D02*
X11052D01*
G01X143583Y20748D02*
Y25117D01*
X131500Y37200D01*
X70500D01*
X60854Y46846D01*
Y51415D01*
X43370Y68899D01*
X29528D01*
G01Y55119D02*
X37662D01*
X47074Y45707D01*
Y39026D01*
X58700Y27400D01*
X71900D01*
X73700Y25600D01*
Y20865D01*
X73583Y20748D01*
G01X53583D02*
Y25717D01*
X43000Y36300D01*
Y44213D01*
X36031Y51182D01*
X29528D01*
G01Y66930D02*
X42554D01*
X58885Y50599D01*
Y46115D01*
X69200Y35800D01*
X123800D01*
X133583Y26017D01*
Y20748D01*
G01X83583D02*
Y25417D01*
X80200Y28800D01*
X60400D01*
X49043Y40157D01*
Y46523D01*
X38478Y57088D01*
X29528D01*
G01X63583Y20748D02*
Y25217D01*
X62800Y26000D01*
X56600D01*
X45106Y37494D01*
Y44892D01*
X36847Y53151D01*
X29528D01*
G01X113583Y20748D02*
Y25917D01*
X106500Y33000D01*
X65800D01*
X54947Y43853D01*
Y48968D01*
X40923Y62992D01*
X29528D01*
G01X43583Y20748D02*
Y25717D01*
X40896Y28404D01*
Y43533D01*
X35215Y49213D01*
X29528D01*
G01Y64961D02*
X41739D01*
X56916Y49784D01*
Y45184D01*
X67700Y34400D01*
X114600D01*
X123583Y25417D01*
Y20748D01*
G01X15355Y61024D02*
X20205D01*
G01X15355Y57088D02*
X23600D01*
G01X15355Y53151D02*
X20205D01*
G01X15355Y55119D02*
X8819D01*
G01X15355Y49213D02*
X23313D01*
G01X29528Y47245D02*
X33800D01*
X38600Y42445D01*
Y30500D01*
X33583Y25483D01*
Y20748D01*
G01X15355Y47245D02*
X8955D01*
G01X15355Y51182D02*
X9018D01*
G01X15355Y59055D02*
X9255D01*
G01X15355Y66930D02*
X8970D01*
G01X15355Y68899D02*
X20205D01*
G01X29528Y59055D02*
X39292D01*
X51010Y47337D01*
Y41490D01*
X62300Y30200D01*
X89500D01*
X93583Y26117D01*
Y20748D01*
G01X15355Y62992D02*
X8808D01*
G01X15355Y64961D02*
X23900D01*
G01D02*
Y66961D01*
X24400Y67461D01*
Y73900D01*
X25953Y75453D01*
X36733D01*
X36747Y75467D01*
X38653D01*
X38667Y75453D01*
X41847D01*
X64800Y52500D01*
Y48900D01*
X73700Y40000D01*
X104700D01*
X105700Y41000D01*
Y50556D01*
X107344Y52200D01*
X112510D01*
X113110Y51600D01*
Y44682D01*
G01X29528Y61024D02*
X40108D01*
X52979Y48153D01*
Y42721D01*
X64100Y31600D01*
X97700D01*
X103583Y25717D01*
Y20748D01*
G01X22000Y73500D02*
X20000D01*
X19336Y72836D01*
X15355D01*
G01X153583Y20748D02*
X135731Y38600D01*
X72300D01*
X62822Y48078D01*
Y52230D01*
X44185Y70867D01*
X29528D01*
G01X15355D02*
X9133D01*
G01X23583Y156417D02*
Y151417D01*
X46000Y129000D01*
X74400D01*
X76500Y126900D01*
Y108700D01*
X83900Y101300D01*
X108000D01*
X113078Y106378D01*
X120866D01*
G01X35000Y33003D02*
Y34000D01*
G01D02*
Y35321D01*
G01X34003Y34000D02*
X35000D01*
G01D02*
X36508D01*
G01X44000Y30179D02*
Y31000D01*
G01D02*
Y32489D01*
G01X42660Y31000D02*
X44000D01*
G01D02*
X44822D01*
G01X33583Y156417D02*
Y151417D01*
X53350Y131650D01*
X75350D01*
X79700Y127300D01*
Y109400D01*
X86400Y102700D01*
X107100D01*
X112746Y108346D01*
X120866D01*
G01X53583Y156417D02*
Y151217D01*
X67400Y137400D01*
X90620D01*
X115736Y112284D01*
X120866D01*
G01X43583Y156417D02*
Y151117D01*
X59700Y135000D01*
X75000D01*
X88200Y121800D01*
Y109800D01*
X93900Y104100D01*
X106500D01*
X112715Y110315D01*
X120866D01*
G01X60600Y78114D02*
Y79300D01*
G01D02*
Y80720D01*
G01X59414Y79300D02*
X60600D01*
G01D02*
X62009D01*
G01X82000Y130404D02*
Y132000D01*
G01D02*
Y133082D01*
G01X80768Y132000D02*
X82000D01*
G01D02*
X83082D01*
G01X63583Y156417D02*
Y151317D01*
X75100Y139800D01*
X90200D01*
X115747Y114253D01*
X120866D01*
G01X73583Y156417D02*
Y150917D01*
X82600Y141900D01*
X90200D01*
X115879Y116221D01*
X120866D01*
G01X83583Y156417D02*
Y150617D01*
X116010Y118190D01*
X120866D01*
G01X95400Y4800D02*
X93583Y6617D01*
Y10748D01*
G01X109170Y44682D02*
Y40692D01*
X109862Y40000D01*
X123300D01*
X124500Y41200D01*
Y44240D01*
G01X90400Y68113D02*
Y69100D01*
G01X124500Y56540D02*
X111740D01*
X111140Y57140D01*
Y61302D01*
G01X109170D02*
Y56050D01*
X110220Y55000D01*
X119160D01*
X124400Y49760D01*
X124500D01*
G01X100200Y61141D02*
Y62270D01*
G01D02*
Y63751D01*
G01X99071Y62270D02*
X100200D01*
G01D02*
X101548D01*
G01X96000Y54028D02*
Y56000D01*
G01D02*
Y56723D01*
G01X95277Y56000D02*
X96000D01*
G01D02*
X96856D01*
G01X106000Y63894D02*
Y65000D01*
G01D02*
Y66655D01*
G01X104827Y65000D02*
X106000D01*
G01D02*
X107106D01*
G01X90400Y69100D02*
Y70922D01*
G01X89413Y69100D02*
X90400D01*
G01D02*
X91407D01*
G01X103583Y156417D02*
Y134817D01*
X116274Y122126D01*
X120866D01*
G01X93583Y156417D02*
Y142817D01*
X116243Y120157D01*
X120866D01*
G01X129300Y48900D02*
Y46300D01*
X127240Y44240D01*
X124500D01*
G01X120000Y48000D02*
Y45282D01*
X119400Y44682D01*
X117050D01*
G01X117500Y67200D02*
X117050Y66750D01*
Y61302D01*
G01X129500Y64660D02*
X126900Y62060D01*
X124500D01*
G01X114608Y66986D02*
X114800Y66794D01*
Y66700D01*
X115080Y66420D01*
Y61302D01*
G01X114260Y74000D02*
Y78260D01*
X117368Y81368D01*
X147300D01*
X150984Y77684D01*
X153284D01*
G01X135038Y108346D02*
X130100D01*
G01X120866D02*
X124194D01*
X125116Y107424D01*
Y103216D01*
X124092Y102192D01*
X120492D01*
X118800Y100500D01*
G01X135038Y116221D02*
X130188D01*
G01X135038Y114253D02*
X140100D01*
G01X135038Y112284D02*
X126000D01*
G01X135038Y110315D02*
X140100D01*
G01X135038Y120157D02*
X125716D01*
G01X135038Y118190D02*
X141990D01*
X143500Y119700D01*
G01X135038Y106378D02*
X140200D01*
G01X135038Y104409D02*
X131409D01*
X129800Y102800D01*
G01X120866Y130000D02*
X116916D01*
X115600Y131316D01*
Y139240D01*
X121760Y145400D01*
X138000D01*
X143583Y150983D01*
Y156417D01*
G01X133583D02*
Y151083D01*
X130700Y148200D01*
X122580D01*
X114200Y139820D01*
Y130736D01*
X116904Y128032D01*
X120866D01*
G01X123583Y156417D02*
Y151183D01*
X112700Y140300D01*
Y130220D01*
X116857Y126063D01*
X120866D01*
G01Y124094D02*
X116606D01*
X111200Y129500D01*
Y148800D01*
X113583Y151183D01*
Y156417D01*
G01X135038Y130000D02*
X140100D01*
X140300Y130200D01*
G01X135038Y122126D02*
X140000D01*
G01X135038Y126063D02*
X140000D01*
G01X135038Y124094D02*
X130694D01*
X130690Y124090D01*
X130188D01*
G01X135038Y128032D02*
X130468D01*
X129500Y129000D01*
Y131000D01*
G01X154280Y32978D02*
Y33970D01*
G01D02*
Y35346D01*
G01X152827Y33970D02*
X154280D01*
G01D02*
X155272D01*
G01X151260Y42140D02*
Y40960D01*
G01D02*
X153960D01*
X154900Y41900D01*
X154660Y42140D01*
X151260D01*
G01Y53950D02*
X154850D01*
X156200Y52600D01*
Y51100D01*
X155120Y50020D01*
X151260D01*
G01Y53950D02*
X146050D01*
X146000Y54000D01*
G01X151260Y51980D02*
X147233D01*
X146103Y50850D01*
X145950D01*
G01X151260Y48050D02*
X146750D01*
X145950Y48850D01*
Y50850D01*
G01X154280Y66919D02*
Y68030D01*
G01D02*
Y69287D01*
G01X152708Y68030D02*
X154280D01*
G01D02*
X155390D01*
G01X151260Y61040D02*
Y59860D01*
G01X141760Y59000D02*
X146790D01*
X147900Y57890D01*
X151260D01*
G01Y46080D02*
X144580D01*
X141760Y48900D01*
Y49000D01*
G01X141000Y76910D02*
Y78000D01*
G01D02*
Y79095D01*
G01X139910Y78000D02*
X141000D01*
G01D02*
X142733D01*
G01X158803Y85558D02*
X164704D01*
G01Y77684D02*
X158803D01*
G01Y93432D02*
X164704D01*
G01X143583Y156417D02*
X150800Y149200D01*
Y130900D01*
X153779Y127921D01*
X161000D01*
G01X168700Y28200D02*
Y5700D01*
G01X170740Y33028D02*
Y33970D01*
G01D02*
Y35296D01*
G01X169798Y33970D02*
X170740D01*
G01D02*
X172242D01*
G01X170740Y66969D02*
Y68030D01*
G01D02*
Y69237D01*
G01X169679Y68030D02*
X170740D01*
G01D02*
X172361D01*
G01X171000Y46910D02*
Y48000D01*
G01D02*
Y49698D01*
G01X169910Y48000D02*
X171000D01*
G01D02*
X172130D01*
G01X171004Y83675D02*
Y85558D01*
G01D02*
Y86472D01*
G01X170090Y85558D02*
X171004D01*
G01D02*
X171950D01*
G01X171004Y93432D02*
Y96396D01*
X168400Y99000D01*
G54D14*
X38490Y114000D03*
G54D23*
X106200Y96800D03*
G54D33*
G01X7874Y175665D02*
X169291D01*
G02X175653Y169686I0J-6374D01*
G03X175665Y153146I1512J-8269D01*
G01Y24019D01*
G03X170300Y20598I1500J-8271D01*
G01Y26690D01*
G03X167100I-1600J1510D01*
G01Y24604D01*
G03X166583Y24748I-517J-856D01*
G01X160700D01*
Y26052D01*
G03X160026Y27678I-2300J0D01*
G01X158026Y29679D01*
G03X156400Y30352I-1626J-1627D01*
G01X151201D01*
X146500Y35052D01*
Y40300D01*
G03X141900I-2300J0D01*
G01Y34694D01*
X136862Y39732D01*
G03X135731Y40200I-1131J-1131D01*
G01X125749D01*
G03X126100Y41200I-1249J1000D01*
G01Y41740D01*
G03X127095Y42640I0J1000D01*
G01X127240D01*
G03X128372Y43109I0J1600D01*
G01X130432Y45168D01*
G03X130900Y46300I-1131J1132D01*
G01Y47390D01*
G03X127100Y48942I-1600J1510D01*
G01Y51260D01*
G03X126100Y52260I-1000J0D01*
G01X124163D01*
X121483Y54940D01*
X121905D01*
G03X122900Y54040I995J100D01*
G01X126100D01*
G03X127100Y55040I0J1000D01*
G01Y58040D01*
G03X126100Y59040I-1000J0D01*
G01X122900D01*
G03X121905Y58140I0J-1000D01*
G01X118510D01*
G03X118601Y58662I-1460J522D01*
G01Y60905D01*
G03X118651Y61302I-1550J397D01*
G01Y65325D01*
G03X119010Y68800I-1151J1875D01*
G01X137786D01*
X143700Y62886D01*
Y61498D01*
G03X143260Y61600I-440J-898D01*
G01X140260D01*
G03X139260Y60600I0J-1000D01*
G01Y57400D01*
G03X140260Y56400I1000J0D01*
G01X143260D01*
G03X144260Y57400I0J1000D01*
G01X146127D01*
X146768Y56759D01*
G03X147700Y56303I1131J1132D01*
G01Y55550D01*
X147561D01*
G03X144439Y52449I-1561J-1550D01*
G03X143826Y51424I1511J-1599D01*
G03X143260Y51600I-566J-824D01*
G01X140260D01*
G03X139260Y50600I0J-1000D01*
G01Y47400D01*
G03X140260Y46400I1000J0D01*
G01X141997D01*
X143448Y44948D01*
G03X144580Y44480I1132J1131D01*
G01X147700D01*
Y43814D01*
X146900Y43014D01*
Y40386D01*
X147986Y39300D01*
X154299D01*
G03X158208I1955J285D01*
G01X166814D01*
X168700Y41186D01*
Y59114D01*
X164814Y63000D01*
X158140D01*
G03X154367I-1887J-585D01*
G01X148714D01*
X148500Y63214D01*
Y68914D01*
X137814Y79600D01*
X119286D01*
X117641Y77955D01*
X116218D01*
X118031Y79768D01*
X146637D01*
X149852Y76553D01*
G03X150783Y76097I1131J1132D01*
G01Y76084D01*
G03X151784Y75084I1000J0D01*
G01X160303D01*
G03X161303Y76084I0J1000D01*
G01X162204D01*
Y75684D01*
G03X163204Y74684I1000J0D01*
G01X166204D01*
G03X167204Y75684I0J1000D01*
G01Y79684D01*
G03X166204Y80684I-1000J0D01*
G01X163204D01*
G03X162204Y79684I0J-1000D01*
G01Y79284D01*
X161303D01*
G03X160303Y80284I-1000J0D01*
G01X151784D01*
G03X151011Y79920I0J-1000D01*
G01X148432Y82499D01*
G03X147300Y82968I-1131J-1131D01*
G01X117368D01*
G03X116236Y82499I0J-1600D01*
G01X113128Y79391D01*
G03X112660Y78260I1131J-1131D01*
G01Y77955D01*
X111700D01*
G03X110700Y76955I0J-1000D01*
G01Y76300D01*
X106943D01*
X105700Y77543D01*
Y82514D01*
X103614Y84600D01*
X57786D01*
X55400Y82214D01*
Y71486D01*
X57886Y69000D01*
X63000D01*
Y66186D01*
X67600Y61586D01*
Y58100D01*
X65988D01*
X51000Y73088D01*
Y74535D01*
G03X47400I-1800J1265D01*
G01Y74143D01*
X43558Y77984D01*
G03X42427Y78453I-1132J-1131D01*
G01X39444D01*
G03X39233Y78467I-211J-1586D01*
G01X36167D01*
G03X35956Y78453I0J-1600D01*
G01X26987D01*
Y81103D01*
G03X25987Y82103I-1000J0D01*
G01X18897D01*
G03X17896Y81103I0J-1000D01*
G01Y78974D01*
G03X17036Y79151I-861J-2005D01*
G01X17035D01*
G03X14853Y76969I0J-2182D01*
G03X14904Y76500I2182J0D01*
G01X6900D01*
G03X5768Y76032I0J-1600D01*
G01X3468Y73732D01*
G03X3000Y72600I1131J-1132D01*
G01Y64700D01*
G03X3468Y63568I1600J0D01*
G01X5176Y61861D01*
G03X6308Y61392I1131J1131D01*
G01X7298D01*
G03X8081Y60916I1510J1600D01*
G03X8084Y57193I1174J-1861D01*
G03X7942Y53101I735J-2074D01*
G03X8004Y49229I1076J-1919D01*
G03X10465Y45645I951J-1984D01*
G01X15355D01*
G03X15534Y45655I0J1600D01*
G01X18505D01*
G03X19505Y46655I0J1000D01*
G01Y47613D01*
X21803D01*
G03X25388Y48480I1510J1600D01*
G03X25458Y48229I990J143D01*
G03X25377Y47835I919J-394D01*
G01Y46655D01*
G03X26377Y45655I1000J0D01*
G01X29348D01*
G03X29528Y45645I180J1590D01*
G01X33137D01*
X37000Y41782D01*
Y31163D01*
X32451Y26614D01*
G03X31982Y25483I1131J-1131D01*
G01Y24414D01*
G03X35183I1600J-3666D01*
G01Y24820D01*
X39295Y28932D01*
Y28404D01*
G03X39764Y27273I1600J0D01*
G01X41982Y25054D01*
Y24414D01*
G03X45183I1600J-3666D01*
G01Y25717D01*
G03X44714Y26849I-1600J0D01*
G01X42496Y29067D01*
Y34541D01*
X51983Y25054D01*
Y24414D01*
G03X55183I1600J-3666D01*
G01Y25154D01*
X55468Y24868D01*
G03X56600Y24400I1132J1131D01*
G01X61950D01*
G03X65183Y24414I1633J-3652D01*
G01Y25217D01*
G03X65073Y25800I-1600J0D01*
G01X71237D01*
X72100Y24937D01*
Y24463D01*
G03X75300Y24361I1483J-3715D01*
G01Y25600D01*
G03X74832Y26732I-1600J0D01*
G01X74363Y27200D01*
X79537D01*
X81982Y24754D01*
Y24414D01*
G03X85183I1600J-3666D01*
G01Y25417D01*
G03X84714Y26549I-1600J0D01*
G01X82663Y28600D01*
X88837D01*
X91983Y25454D01*
Y24414D01*
G03X95183I1600J-3666D01*
G01Y26117D01*
G03X94714Y27249I-1600J0D01*
G01X91963Y30000D01*
X97037D01*
X101982Y25054D01*
Y24414D01*
G03X105183I1600J-3666D01*
G01Y25717D01*
G03X104714Y26849I-1600J0D01*
G01X100163Y31400D01*
X105837D01*
X111982Y25254D01*
Y24414D01*
G03X115183I1600J-3666D01*
G01Y25917D01*
G03X114714Y27049I-1600J0D01*
G01X108963Y32800D01*
X113937D01*
X121983Y24754D01*
Y24414D01*
G03X125183I1600J-3666D01*
G01Y25417D01*
G03X124714Y26549I-1600J0D01*
G01X117063Y34200D01*
X123137D01*
X131982Y25354D01*
Y24414D01*
G03X135183I1600J-3666D01*
G01Y26017D01*
G03X134714Y27149I-1600J0D01*
G01X126263Y35600D01*
X130837D01*
X141982Y24454D01*
Y24414D01*
G03X145183I1600J-3666D01*
G01Y25117D01*
G03X144714Y26249I-1600J0D01*
G01X133963Y37000D01*
X135068D01*
X149859Y22209D01*
G03X156100Y17639I3724J-1461D01*
G01Y15931D01*
G03X156774Y14304I2300J0D01*
G01X159642Y11436D01*
G03X167100Y8842I3941J-688D01*
G01Y7210D01*
G03X170300I1600J-1510D01*
G01Y10898D01*
G03X175653Y7479I6865J4850D01*
G02X169291Y1500I-6362J395D01*
G01X7874D01*
G02X1512Y7480I0J6374D01*
G03X1500Y24019I-1512J8269D01*
G01Y153146D01*
G03X1512Y169686I-1500J8271D01*
G02X7874Y175665I6362J-395D01*
G01X10583Y160418D02*
X16583D01*
G02X17583Y159417I0J-1000D01*
G01Y153417D01*
G02X16583Y152417I-1000J0D01*
G01X10583D01*
G02X9582Y153417I0J1000D01*
G01Y159417D01*
G02X10583Y160418I1000J0D01*
G01X158000Y141764D02*
X164000D01*
G02X165000Y140764I0J-1000D01*
G01Y134764D01*
G02X164000Y133764I-1000J0D01*
G01X158000D01*
G02X157000Y134764I0J1000D01*
G01Y140764D01*
G02X158000Y141764I1000J0D01*
G01X91983Y7082D02*
G02X95319Y7144I1600J3666D01*
G01X96531Y5932D01*
G02X94268Y3669I-1131J-1131D01*
G01X92451Y5486D01*
G02X91983Y6617I1131J1131D01*
G01Y7082D01*
G01X17035Y43483D02*
X17036D01*
G02X19218Y41317I0J-2182D01*
G01X25987D01*
G02X26987Y40317I0J-1000D01*
G01Y37167D01*
G02X25987Y36167I-1000J0D01*
G01X18897D01*
G02X17896Y37167I0J1000D01*
G01Y39296D01*
G02X17036Y39119I-861J2005D01*
G01X17035D01*
G02X14853Y41301I0J2182D01*
G02X17035Y43483I2182J0D01*
G01X124406Y141078D02*
X131497D01*
G02X132497Y140078I0J-1000D01*
G01Y137950D01*
G02X133358Y138127I861J-2005D01*
G02X135540Y135945I0J-2182D01*
G01Y135944D01*
G02X133358Y133762I-2182J0D01*
G01X133357D01*
G02X131176Y135928I0J2182D01*
G01X124406D01*
G02X123406Y136928I0J1000D01*
G01Y140078D01*
G02X124406Y141078I1000J0D01*
G01X57890Y114000D02*
G02I-3060J0D01*
G01X37583Y10748D02*
G02I-4000J0D01*
G01X47583D02*
G02I-4000J0D01*
G01X57583D02*
G02I-4000J0D01*
G01X67583D02*
G02I-4000J0D01*
G01X77583D02*
G02I-4000J0D01*
G01X87583D02*
G02I-4000J0D01*
G01X107583D02*
G02I-4000J0D01*
G01X117583D02*
G02I-4000J0D01*
G01X127583D02*
G02I-4000J0D01*
G01X137583D02*
G02I-4000J0D01*
G01X147583D02*
G02I-4000J0D01*
G01X165000Y118079D02*
G02I-4000J0D01*
G01X37583Y166417D02*
G02I-4000J0D01*
G01X27583D02*
G02I-4000J0D01*
G01X17583D02*
G02I-4000J0D01*
G01X57583D02*
G02I-4000J0D01*
G01X47583D02*
G02I-4000J0D01*
G01X87583D02*
G02I-4000J0D01*
G01X77583D02*
G02I-4000J0D01*
G01X67583D02*
G02I-4000J0D01*
G01X117583D02*
G02I-4000J0D01*
G01X107583D02*
G02I-4000J0D01*
G01X97583D02*
G02I-4000J0D01*
G01X137583D02*
G02I-4000J0D01*
G01X127583D02*
G02I-4000J0D01*
G01X147583D02*
G02I-4000J0D01*
G01X157583Y10748D02*
G02I-4000J0D01*
G01X127301Y64724D02*
G02X129564Y62461I2199J-64D01*
G01X128032Y60928D01*
G02X127096Y60472I-1132J1132D01*
G02X126100Y59560I-996J88D01*
G01X122900D01*
G02X121900Y60560I0J1000D01*
G01Y63560D01*
G02X122900Y64560I1000J0D01*
G01X126100D01*
G02X126826Y64248I0J-1000D01*
G01X127301Y64724D01*
G01X168336Y96801D02*
G02X170599Y99064I64J2199D01*
G01X172136Y97527D01*
G02X172604Y96428I-1131J-1132D01*
G02X173505Y95432I-100J-995D01*
G01Y91432D01*
G02X172504Y90432I-1000J0D01*
G01X169504D01*
G02X168504Y91432I0J1000D01*
G01Y95432D01*
G02X168904Y96233I1000J0D01*
G01X168336Y96801D01*
G01X141982Y152751D02*
G02X147307Y154956I1600J3666D01*
G01X151932Y150332D01*
G02X152400Y149200I-1131J-1132D01*
G01Y131563D01*
X154442Y129522D01*
X157334D01*
G02Y126321I3666J-1600D01*
G01X153779D01*
G02X152647Y126790I0J1600D01*
G01X149668Y129768D01*
G02X149200Y130900I1131J1131D01*
G01Y148537D01*
X145183Y152554D01*
Y150983D01*
G02X144714Y149851I-1600J0D01*
G01X139132Y144268D01*
G02X138000Y143800I-1131J1131D01*
G01X122422D01*
X117200Y138578D01*
Y131979D01*
X117579Y131601D01*
X120866D01*
G02X121045Y131591I0J-1600D01*
G01X124016D01*
G02X125016Y130590I0J-1000D01*
G01Y129410D01*
G02X124935Y129016I-1000J0D01*
G02X125016Y128622I-919J-394D01*
G01Y127442D01*
G02X124935Y127048I-1000J0D01*
G02X125016Y126653I-919J-395D01*
G01Y125473D01*
G02X124935Y125079I-1000J0D01*
G02X125016Y124684I-919J-395D01*
G01Y123504D01*
G02X124935Y123110I-1000J0D01*
G02X125016Y122716I-919J-394D01*
G01Y122243D01*
G02X127226Y121757I700J-2086D01*
G01X130888D01*
Y122004D01*
G02Y126176I-700J2086D01*
G01Y126432D01*
X130468D01*
G02X129336Y126901I0J1600D01*
G01X128368Y127868D01*
G02X127900Y129000I1131J1131D01*
G01Y129490D01*
G02X131629Y131556I1600J1510D01*
G02X131888Y131591I260J-966D01*
G01X134859D01*
G02X135038Y131601I179J-1590D01*
G01X138603D01*
G02X140883Y128078I1697J-1401D01*
G02X140983Y124095I-883J-2015D01*
G02X142065Y121368I-983J-1968D01*
G02X143564Y117501I1435J-1668D01*
G01X143122Y117059D01*
G02X141990Y116590I-1132J1131D01*
G01X139189D01*
Y116256D01*
G02X141082Y112284I911J-2003D01*
G02X141131Y108372I-982J-1969D01*
G02X141840Y104912I-931J-1993D01*
G01X144388D01*
G02X145661Y104385I0J-1800D01*
G01X148173Y101873D01*
G02X148700Y100600I-1273J-1273D01*
G01Y95840D01*
G02X149500Y94860I-200J-980D01*
G01Y87886D01*
X150028Y87358D01*
X150804D01*
G02X151483Y88112I980J-200D01*
G01Y90878D01*
G02X150783Y91832I300J954D01*
G01Y95032D01*
G02X151784Y96033I1000J0D01*
G01X160303D01*
G02X161303Y95033I0J-1000D01*
G01X162204D01*
Y95432D01*
G02X163204Y96433I1000J0D01*
G01X166204D01*
G02X167204Y95432I0J-1000D01*
G01Y91432D01*
G02X166204Y90432I-1000J0D01*
G01X163204D01*
G02X162204Y91432I0J1000D01*
G01Y91832D01*
X161303D01*
G02X160303Y90832I-1000J0D01*
G01X155084D01*
Y88158D01*
X160303D01*
G02X161303Y87158I0J-1000D01*
G01X162204D01*
Y87558D01*
G02X163204Y88558I1000J0D01*
G01X166204D01*
G02X167204Y87558I0J-1000D01*
G01Y83558D01*
G02X166204Y82558I-1000J0D01*
G01X163204D01*
G02X162204Y83558I0J1000D01*
G01Y83958D01*
X161303D01*
G02X160303Y82958I-1000J0D01*
G01X151784D01*
G02X150804Y83758I0J1000D01*
G01X149282D01*
G02X148009Y84285I0J1800D01*
G01X146954Y85340D01*
X145300D01*
G02X144346Y86040I0J1000D01*
G01X139260D01*
G02X137987Y86567I0J1800D01*
G01X137554Y87000D01*
X112750D01*
G02X111750Y86000I-1000J0D01*
G01Y85815D01*
G02X108150I-1800J-1265D01*
G01Y86000D01*
G02X107150Y87000I0J1000D01*
G01Y90600D01*
G02X108150Y91600I1000J0D01*
G01X111750D01*
G02X112750Y90600I0J-1000D01*
G01X138300D01*
G02X139573Y90073I0J-1800D01*
G01X140006Y89640D01*
X144300D01*
Y94860D01*
G02X145100Y95840I1000J0D01*
G01Y99854D01*
X143642Y101312D01*
X138896D01*
G02X137623Y101839I0J1800D01*
G01X136853Y102609D01*
X135038D01*
G02X134214Y102809I0J1800D01*
G01X132072D01*
X131999Y102736D01*
G02X131709Y101706I-2199J64D01*
G02X133357Y102459I1649J-1429D01*
G01X133358D01*
G02X135540Y100276I0J-2182D01*
G02X133358Y98094I-2182J0D01*
G02X132497Y98271I0J2182D01*
G01Y96142D01*
G02X131497Y95142I-1000J0D01*
G01X124406D01*
G02X123406Y96142I0J1000D01*
G01Y98460D01*
X120473Y95527D01*
G02X119200Y95000I-1273J1273D01*
G01X109000D01*
Y94300D01*
G02X108000Y93300I-1000J0D01*
G01X104400D01*
G02X103400Y94300I0J1000D01*
G01Y99300D01*
G02X103483Y99700I1000J0D01*
G01X83900D01*
G02X82769Y100168I0J1600D01*
G01X75650Y107287D01*
Y100196D01*
X85246Y90600D01*
X99650D01*
G02X100650Y91600I1000J0D01*
G01X104250D01*
G02X105250Y90600I0J-1000D01*
G01Y87000D01*
G02X104250Y86000I-1000J0D01*
G01X100650D01*
G02X99650Y87000I0J1000D01*
G01X84500D01*
G02X83227Y87527I0J1800D01*
G01X72577Y98177D01*
G02X72050Y99450I1273J1273D01*
G01Y123685D01*
G02X73991Y127146I1800J1265D01*
G01X73737Y127400D01*
X46000D01*
G02X44868Y127868I0J1600D01*
G01X22451Y150286D01*
G02X21982Y151417I1131J1131D01*
G01Y152751D01*
G02X25183I1600J3666D01*
G01Y152080D01*
X46663Y130600D01*
X52137D01*
X32451Y150286D01*
G02X31982Y151417I1131J1131D01*
G01Y152751D01*
G02X35183I1600J3666D01*
G01Y152080D01*
X54013Y133250D01*
X74487D01*
X74337Y133400D01*
X59700D01*
G02X58568Y133868I0J1600D01*
G01X42451Y149986D01*
G02X41982Y151117I1131J1132D01*
G01Y152751D01*
G02X45183I1600J3666D01*
G01Y151780D01*
X60363Y136600D01*
X65937D01*
X52451Y150086D01*
G02X51983Y151217I1131J1131D01*
G01Y152751D01*
G02X55183I1600J3666D01*
G01Y151880D01*
X68063Y139000D01*
X73637D01*
X62451Y150186D01*
G02X61983Y151317I1131J1132D01*
G01Y152751D01*
G02X65183I1600J3666D01*
G01Y151980D01*
X75763Y141400D01*
X80837D01*
X72451Y149786D01*
G02X71982Y150917I1131J1132D01*
G01Y152751D01*
G02X75183I1600J3666D01*
G01Y151580D01*
X83263Y143500D01*
X88437D01*
X82451Y149486D01*
G02X81982Y150617I1131J1131D01*
G01Y152751D01*
G02X85183I1600J3666D01*
G01Y151280D01*
X91983Y144480D01*
Y152751D01*
G02X95183I1600J3666D01*
G01Y143480D01*
X101982Y136680D01*
Y152751D01*
G02X105183I1600J3666D01*
G01Y135480D01*
X109600Y131063D01*
Y148800D01*
G02X110068Y149932I1600J0D01*
G01X111982Y151846D01*
Y152751D01*
G02X115183I1600J3666D01*
G01Y151183D01*
G02X114714Y150051I-1600J0D01*
G01X112800Y148137D01*
Y142663D01*
X121983Y151846D01*
Y152751D01*
G02X125183I1600J3666D01*
G01Y151183D01*
G02X124714Y150051I-1600J0D01*
G01X124463Y149800D01*
X130037D01*
X131982Y151746D01*
Y152751D01*
G02X135183I1600J3666D01*
G01Y151083D01*
G02X134714Y149951I-1600J0D01*
G01X131832Y147068D01*
G02X131759Y147000I-1131J1132D01*
G01X137337D01*
X141982Y151646D01*
Y152751D01*
G01X2233Y172259D02*
X4906Y174932D01*
G01X2304Y169501D02*
X8468Y175665D01*
G01X4282Y168651D02*
X11296Y175665D01*
G01X5882Y167423D02*
X14125Y175665D01*
G01X7140Y165853D02*
X16953Y175665D01*
G01X14440Y170324D02*
X19781Y175665D01*
G01X8027Y163911D02*
X9676Y165560D01*
G01X16299Y169354D02*
X22610Y175665D01*
G01X8406Y161461D02*
X10646Y163701D01*
G01X17397Y167624D02*
X25438Y175665D01*
G01X10010Y160238D02*
X12376Y162603D01*
G01X7601Y157828D02*
X9762Y159990D01*
G01X1500Y151727D02*
X3589Y153816D01*
G01X22972Y170371D02*
X28267Y175665D01*
G01X17084Y164483D02*
X19629Y167028D01*
G01X13019Y160418D02*
X15517Y162916D01*
G01X1500Y148899D02*
X9582Y156981D01*
G01X25407Y169977D02*
X31095Y175665D01*
G01X15847Y160418D02*
X20023Y164593D01*
G01X1500Y146070D02*
X9582Y154153D01*
G01X26904Y168646D02*
X33924Y175665D01*
G01X17583Y159325D02*
X21354Y163096D01*
G01X1500Y143242D02*
X10675Y152417D01*
G01X27582Y166496D02*
X36752Y175665D01*
G01X17583Y156496D02*
X23504Y162418D01*
G01X1500Y140414D02*
X13504Y152417D01*
G01X34273Y170358D02*
X39580Y175665D01*
G01X24272Y160358D02*
X29642Y165728D01*
G01X17583Y153668D02*
X19642Y155728D01*
G01X1500Y137585D02*
X16332Y152417D01*
G01X36192Y169449D02*
X42409Y175665D01*
G01X26192Y159449D02*
X30551Y163808D01*
G01X1500Y134757D02*
X20551Y153808D01*
G01X37346Y167774D02*
X45237Y175665D01*
G01X27346Y157774D02*
X32226Y162654D01*
G01X1500Y131928D02*
X21982Y152411D01*
G01X42725Y170324D02*
X48066Y175665D01*
G01X37273Y164872D02*
X39676Y167275D01*
G01X32725Y160324D02*
X35128Y162727D01*
G01X27273Y154872D02*
X29676Y157275D01*
G01X1500Y129100D02*
X22569Y150168D01*
G01X45272Y170043D02*
X50894Y175665D01*
G01X35272Y160043D02*
X39957Y164728D01*
G01X26246Y151017D02*
X29957Y154728D01*
G01X1500Y126271D02*
X23983Y148754D01*
G01X46822Y168765D02*
X53723Y175665D01*
G01X36822Y158765D02*
X41235Y163178D01*
G01X27660Y149603D02*
X31235Y153178D01*
G01X1500Y123443D02*
X25397Y147340D01*
G01X47574Y166688D02*
X56551Y175665D01*
G01X37574Y156688D02*
X43312Y162426D01*
G01X29074Y148189D02*
X32010Y151124D01*
G01X1500Y120615D02*
X26811Y145926D01*
G01X54098Y170384D02*
X59379Y175665D01*
G01X44098Y160384D02*
X49616Y165902D01*
G01X35488Y151775D02*
X39616Y155902D01*
G01X30488Y146775D02*
X33225Y149512D01*
G01X1500Y117786D02*
X28225Y144512D01*
G01X56083Y169540D02*
X62208Y175665D01*
G01X46083Y159540D02*
X50460Y163917D01*
G01X36903Y150360D02*
X40460Y153917D01*
G01X31903Y145360D02*
X34640Y148097D01*
G01X1500Y114958D02*
X29640Y143097D01*
G01X57290Y167920D02*
X65036Y175665D01*
G01X47290Y157920D02*
X52080Y162710D01*
G01X38317Y148946D02*
X41982Y152612D01*
G01X33317Y143946D02*
X36054Y146683D01*
G01X1500Y112129D02*
X31054Y141683D01*
G01X62454Y170255D02*
X67864Y175665D01*
G01X57390Y165191D02*
X59745Y167546D01*
G01X52454Y160255D02*
X54809Y162610D01*
G01X47390Y155191D02*
X49745Y157546D01*
G01X39731Y147532D02*
X42326Y150127D01*
G01X34731Y142532D02*
X37468Y145269D01*
G01X1500Y109301D02*
X32468Y140269D01*
G01X65133Y170105D02*
X70693Y175665D01*
G01X55133Y160105D02*
X59895Y164867D01*
G01X45995Y150968D02*
X49895Y154867D01*
G01X41145Y146118D02*
X43732Y148705D01*
G01X36145Y141118D02*
X38882Y143855D01*
G01X1500Y106472D02*
X33882Y138855D01*
G01X66736Y168880D02*
X73521Y175665D01*
G01X56736Y158880D02*
X61120Y163264D01*
G01X47410Y149554D02*
X51120Y153264D01*
G01X42560Y144704D02*
X45146Y147290D01*
G01X37560Y139704D02*
X40296Y142440D01*
G01X1500Y103644D02*
X35296Y137440D01*
G01X67557Y166872D02*
X76350Y175665D01*
G01X57557Y156872D02*
X63128Y162443D01*
G01X48824Y148139D02*
X51982Y151298D01*
G01X43974Y143289D02*
X46561Y145876D01*
G01X38974Y138289D02*
X41711Y141026D01*
G01X1500Y100816D02*
X36711Y136026D01*
G01X73916Y170404D02*
X79178Y175665D01*
G01X63916Y160404D02*
X69596Y166084D01*
G01X55288Y151775D02*
X59596Y156084D01*
G01X50238Y146725D02*
X53025Y149512D01*
G01X45388Y141875D02*
X47975Y144462D01*
G01X40388Y136875D02*
X43125Y139612D01*
G01X1500Y97987D02*
X38125Y134612D01*
G01X75969Y169628D02*
X82007Y175665D01*
G01X65969Y159628D02*
X70372Y164031D01*
G01X56702Y150361D02*
X60372Y154031D01*
G01X51652Y145311D02*
X54439Y148098D01*
G01X46802Y140461D02*
X49389Y143048D01*
G01X41802Y135461D02*
X44539Y138198D01*
G01X1500Y95159D02*
X39539Y133198D01*
G01X77230Y168060D02*
X84835Y175665D01*
G01X67230Y158060D02*
X71940Y162770D01*
G01X58116Y148947D02*
X61940Y152770D01*
G01X53066Y143897D02*
X55853Y146684D01*
G01X48216Y139047D02*
X50803Y141634D01*
G01X43216Y134047D02*
X45953Y136784D01*
G01X1500Y92330D02*
X40953Y131784D01*
G01X82150Y170152D02*
X87664Y175665D01*
G01X77470Y165471D02*
X79848Y167850D01*
G01X72150Y160152D02*
X74529Y162530D01*
G01X67470Y155471D02*
X69848Y157850D01*
G01X59531Y147532D02*
X62326Y150327D01*
G01X54481Y142482D02*
X57268Y145269D01*
G01X49631Y137632D02*
X52218Y140219D01*
G01X44631Y132632D02*
X47368Y135369D01*
G01X1500Y89502D02*
X42368Y130369D01*
G01X84989Y170162D02*
X90492Y175665D01*
G01X74989Y160162D02*
X79838Y165011D01*
G01X65995Y151168D02*
X69838Y155011D01*
G01X60945Y146118D02*
X63732Y148905D01*
G01X55895Y141068D02*
X58682Y143855D01*
G01X51045Y136218D02*
X53632Y138805D01*
G01X46045Y131218D02*
X48782Y133955D01*
G01X1500Y86674D02*
X43782Y128955D01*
G01X86646Y168990D02*
X93320Y175665D01*
G01X76646Y158990D02*
X81010Y163354D01*
G01X67409Y149754D02*
X71010Y153355D01*
G01X62359Y144704D02*
X65146Y147491D01*
G01X57309Y139654D02*
X60096Y142441D01*
G01X52459Y134804D02*
X55046Y137391D01*
G01X48255Y130600D02*
X50196Y132541D01*
G01X1500Y83845D02*
X45244Y127589D01*
G01X87533Y167049D02*
X96149Y175665D01*
G01X77533Y157049D02*
X82951Y162467D01*
G01X68823Y148340D02*
X71982Y151499D01*
G01X63773Y143290D02*
X66560Y146077D01*
G01X58723Y138240D02*
X61510Y141027D01*
G01X53873Y133390D02*
X56460Y135977D01*
G01X51084Y130600D02*
X51610Y131127D01*
G01X1500Y81017D02*
X47883Y127400D01*
G01X93727Y170415D02*
X98977Y175665D01*
G01X83727Y160415D02*
X89585Y166273D01*
G01X75183Y151871D02*
X79585Y156273D01*
G01X70238Y146926D02*
X72774Y149462D01*
G01X65188Y141876D02*
X67974Y144662D01*
G01X60138Y136826D02*
X62924Y139612D01*
G01X56562Y133250D02*
X57874Y134562D01*
G01X1500Y78188D02*
X50712Y127400D01*
G01X95852Y169712D02*
X101806Y175665D01*
G01X85852Y159712D02*
X90288Y164148D01*
G01X76452Y150311D02*
X80288Y154148D01*
G01X71652Y145511D02*
X74189Y148048D01*
G01X66602Y140461D02*
X69389Y143248D01*
G01X62740Y136600D02*
X64339Y138198D01*
G01X59391Y133250D02*
X59547Y133407D01*
G01X1500Y75360D02*
X53540Y127400D01*
G01X97165Y168197D02*
X104634Y175665D01*
G01X87165Y158197D02*
X91803Y162835D01*
G01X77866Y148897D02*
X81803Y152835D01*
G01X73066Y144097D02*
X75603Y146634D01*
G01X68016Y139047D02*
X70803Y141834D01*
G01X65569Y136600D02*
X65753Y136784D01*
G01X62219Y133250D02*
X62368Y133400D01*
G01X1500Y72531D02*
X56368Y127400D01*
G01X101791Y169994D02*
X107462Y175665D01*
G01X97523Y165726D02*
X100006Y168209D01*
G01X91791Y159994D02*
X94274Y162477D01*
G01X87523Y155726D02*
X90006Y158209D01*
G01X79280Y147483D02*
X82029Y150232D01*
G01X74480Y142683D02*
X77017Y145220D01*
G01X70797Y139000D02*
X72217Y140420D01*
G01X65048Y133250D02*
X65197Y133400D01*
G01X8297Y76500D02*
X59197Y127400D01*
G01X1500Y69703D02*
X3000Y71203D01*
G01X104840Y170215D02*
X110291Y175665D01*
G01X94840Y160215D02*
X99785Y165160D01*
G01X85544Y150919D02*
X89785Y155160D01*
G01X80694Y146069D02*
X83281Y148656D01*
G01X76026Y141400D02*
X78431Y143806D01*
G01X73626Y139000D02*
X73631Y139006D01*
G01X67876Y133250D02*
X68025Y133400D01*
G01X11126Y76500D02*
X62025Y127400D01*
G01X1500Y66874D02*
X3000Y68374D01*
G01X106552Y169098D02*
X113119Y175665D01*
G01X96552Y159098D02*
X100902Y163448D01*
G01X86958Y149505D02*
X90902Y153448D01*
G01X82108Y144655D02*
X84696Y147242D01*
G01X78854Y141400D02*
X79846Y142392D01*
G01X70704Y133250D02*
X70854Y133400D01*
G01X54496Y117042D02*
X64854Y127400D01*
G01X19557Y82103D02*
X51788Y114334D01*
G01X16551Y79097D02*
X17896Y80442D01*
G01X13954Y76500D02*
X14908Y77454D01*
G01X1500Y64046D02*
X3000Y65546D01*
G01X107502Y167219D02*
X115948Y175665D01*
G01X97502Y157219D02*
X102781Y162498D01*
G01X88373Y148090D02*
X91983Y151700D01*
G01X83783Y143500D02*
X86110Y145827D01*
G01X73533Y133250D02*
X73682Y133400D01*
G01X56703Y116420D02*
X67682Y127400D01*
G01X22386Y82103D02*
X52410Y112127D01*
G01X1500Y61218D02*
X3660Y63377D01*
G01X113528Y170417D02*
X118776Y175665D01*
G01X103528Y160417D02*
X109583Y166472D01*
G01X95183Y152072D02*
X99583Y156472D01*
G01X89787Y146676D02*
X91983Y148872D01*
G01X86611Y143500D02*
X87524Y144413D01*
G01X57809Y114698D02*
X70511Y127400D01*
G01X25214Y82103D02*
X54131Y111020D01*
G01X1500Y58389D02*
X5074Y61963D01*
G01X115731Y169792D02*
X121605Y175665D01*
G01X105731Y159792D02*
X110208Y164269D01*
G01X95183Y149244D02*
X100208Y154269D01*
G01X91201Y145262D02*
X91983Y146043D01*
G01X72848Y126909D02*
X73339Y127400D01*
G01X26987Y81048D02*
X71891Y125952D01*
G01X1500Y55561D02*
X7315Y61376D01*
G01X117097Y168329D02*
X124433Y175665D01*
G01X107097Y158329D02*
X111671Y162903D01*
G01X95183Y146415D02*
X101671Y152903D01*
G01X27221Y78453D02*
X72050Y123282D01*
G01X1500Y52732D02*
X7158Y58390D01*
G01X121295Y169699D02*
X127262Y175665D01*
G01X117557Y165961D02*
X120301Y168705D01*
G01X111295Y159699D02*
X114039Y162443D01*
G01X107557Y155961D02*
X110301Y158705D01*
G01X95183Y143587D02*
X101982Y150386D01*
G01X30049Y78453D02*
X72050Y120454D01*
G01X1500Y49904D02*
X6621Y55025D01*
G01X124687Y170262D02*
X130090Y175665D01*
G01X114687Y160262D02*
X119738Y165313D01*
G01X105183Y150758D02*
X109738Y155313D01*
G01X96544Y142119D02*
X101982Y147558D01*
G01X32878Y78453D02*
X72050Y117625D01*
G01X1500Y47076D02*
X7668Y53244D01*
G01X126455Y169202D02*
X132918Y175665D01*
G01X116455Y159202D02*
X120798Y163545D01*
G01X105183Y147930D02*
X110798Y153545D01*
G01X97958Y140705D02*
X101982Y144730D01*
G01X35706Y78453D02*
X72050Y114797D01*
G01X1500Y44247D02*
X7198Y49945D01*
G01X127465Y167383D02*
X135747Y175665D01*
G01X117465Y157383D02*
X122617Y162535D01*
G01X105183Y145102D02*
X111982Y151901D01*
G01X99372Y139291D02*
X101982Y141901D01*
G01X38549Y78467D02*
X72050Y111968D01*
G01X1500Y41419D02*
X6815Y46734D01*
G01X133319Y170409D02*
X138575Y175665D01*
G01X123319Y160409D02*
X129591Y166681D01*
G01X115183Y152273D02*
X119591Y156681D01*
G01X105183Y142273D02*
X109600Y146690D01*
G01X100786Y137877D02*
X101982Y139073D01*
G01X41363Y78453D02*
X72050Y109140D01*
G01X1500Y38590D02*
X8119Y45210D01*
G01X135606Y169868D02*
X141404Y175665D01*
G01X125606Y159868D02*
X130132Y164394D01*
G01X112800Y147062D02*
X120132Y154394D01*
G01X105183Y139445D02*
X109600Y143862D01*
G01X43641Y77902D02*
X72050Y106312D01*
G01X1500Y35762D02*
X11383Y45645D01*
G01X137024Y168457D02*
X144232Y175665D01*
G01X127024Y158457D02*
X131543Y162976D01*
G01X112800Y144234D02*
X121543Y152976D01*
G01X105183Y136616D02*
X109600Y141033D01*
G01X75650Y107084D02*
X75752Y107185D01*
G01X45055Y76488D02*
X72050Y103483D01*
G01X1500Y32933D02*
X14211Y45645D01*
G01X137576Y166181D02*
X147061Y175665D01*
G01X127576Y156181D02*
X133819Y162424D01*
G01X106029Y134634D02*
X109600Y138205D01*
G01X75650Y104255D02*
X77166Y105771D01*
G01X49387Y77992D02*
X72050Y100655D01*
G01X46469Y75074D02*
X47008Y75613D01*
G01X1500Y30105D02*
X17050Y45655D01*
G01X144528Y170304D02*
X149889Y175665D01*
G01X134528Y160304D02*
X139696Y165472D01*
G01X125165Y150941D02*
X129696Y155472D01*
G01X107443Y133220D02*
X109600Y135376D01*
G01X75650Y101427D02*
X78580Y104357D01*
G01X58824Y84600D02*
X72492Y98268D01*
G01X51112Y76888D02*
X55400Y81176D01*
G01X17626Y43402D02*
X21820Y47597D01*
G01X1500Y27276D02*
X14934Y40711D01*
G01X146354Y169302D02*
X152717Y175665D01*
G01X136354Y159302D02*
X140698Y163646D01*
G01X126852Y149800D02*
X130698Y153646D01*
G01X108858Y131806D02*
X109600Y132548D01*
G01X76449Y99397D02*
X79994Y102942D01*
G01X61652Y84600D02*
X73903Y96851D01*
G01X51000Y73948D02*
X55400Y78348D01*
G01X25281Y48229D02*
X25412Y48360D01*
G01X19090Y42038D02*
X24297Y47245D01*
G01X1500Y24448D02*
X16299Y39247D01*
G01X147422Y167541D02*
X155546Y175665D01*
G01X137422Y157541D02*
X142459Y162578D01*
G01X129681Y149800D02*
X131982Y152102D01*
G01X117200Y137320D02*
X123680Y143800D01*
G01X77863Y97983D02*
X81409Y101528D01*
G01X64481Y84600D02*
X75317Y95437D01*
G01X51984Y72104D02*
X55400Y75519D01*
G01X21198Y41317D02*
X25754Y45873D01*
G01X3342Y23461D02*
X17896Y38016D01*
G01X146919Y164210D02*
X158374Y175665D01*
G01X143097Y160388D02*
X145790Y163081D01*
G01X136919Y154210D02*
X139612Y156903D01*
G01X135183Y152474D02*
X135790Y153081D01*
G01X117200Y134491D02*
X126509Y143800D01*
G01X79277Y96569D02*
X82824Y100115D01*
G01X67309Y84600D02*
X76732Y94023D01*
G01X53399Y70690D02*
X55400Y72691D01*
G01X24026Y41317D02*
X28364Y45655D01*
G01X5122Y22413D02*
X18876Y36167D01*
G01X145478Y159940D02*
X161203Y175665D01*
G01X132538Y147000D02*
X140060Y154522D01*
G01X126616Y141078D02*
X129337Y143800D01*
G01X117358Y131821D02*
X123406Y137869D01*
G01X80692Y95154D02*
X85237Y99700D01*
G01X70138Y84600D02*
X78146Y92608D01*
G01X54813Y69276D02*
X56211Y70674D01*
G01X26625Y41088D02*
X31182Y45645D01*
G01X6552Y21014D02*
X21704Y36167D01*
G01X146947Y158581D02*
X164031Y175665D01*
G01X135366Y147000D02*
X141419Y153053D01*
G01X129444Y141078D02*
X132166Y143800D01*
G01X119966Y131601D02*
X124299Y135934D01*
G01X82106Y93740D02*
X88066Y99700D01*
G01X72966Y84600D02*
X79560Y91194D01*
G01X56227Y67862D02*
X57626Y69260D01*
G01X26987Y38621D02*
X33574Y45208D01*
G01X7633Y19268D02*
X24533Y36167D01*
G01X147583Y156389D02*
X166860Y175665D01*
G01X132083Y140889D02*
X134994Y143800D01*
G01X122785Y131591D02*
X127122Y135928D01*
G01X83520Y92326D02*
X90894Y99700D01*
G01X75794Y84600D02*
X80974Y89780D01*
G01X57641Y66447D02*
X60194Y69000D01*
G01X8296Y17102D02*
X34988Y43794D01*
G01X148143Y154120D02*
X169676Y175654D01*
G01X145183Y151160D02*
X145880Y151857D01*
G01X132497Y138474D02*
X137822Y143800D01*
G01X124956Y130933D02*
X129951Y135928D01*
G01X84934Y90912D02*
X93722Y99700D01*
G01X78623Y84600D02*
X82388Y88366D01*
G01X59056Y65033D02*
X63000Y68977D01*
G01X8271Y14248D02*
X36402Y42380D01*
G01X149557Y152706D02*
X171940Y175089D01*
G01X134594Y137743D02*
X147294Y150443D01*
G01X129995Y133144D02*
X131559Y134708D01*
G01X125016Y128165D02*
X127356Y130505D01*
G01X87451Y90600D02*
X96551Y99700D01*
G01X81451Y84600D02*
X83940Y87089D01*
G01X60470Y63619D02*
X63018Y66167D01*
G01X2076Y5225D02*
X37000Y40149D01*
G01X150971Y151292D02*
X173635Y173956D01*
G01X135538Y135859D02*
X148708Y149029D01*
G01X131529Y131850D02*
X133443Y133764D01*
G01X125005Y125326D02*
X128035Y128356D01*
G01X90280Y90600D02*
X99379Y99700D01*
G01X84280Y84600D02*
X86679Y87000D01*
G01X61884Y62205D02*
X64432Y64753D01*
G01X3210Y3530D02*
X37000Y37320D01*
G01X152290Y149783D02*
X174874Y172367D01*
G01X134098Y131591D02*
X149200Y146692D01*
G01X125016Y122508D02*
X129373Y126865D01*
G01X93108Y90600D02*
X102208Y99700D01*
G01X87108Y84600D02*
X89508Y87000D01*
G01X63298Y60790D02*
X65847Y63339D01*
G01X4799Y2291D02*
X37000Y34492D01*
G01X174828Y169492D02*
X175592Y170256D01*
G01X152400Y147064D02*
X169091Y163755D01*
G01X136937Y131601D02*
X149200Y143864D01*
G01X127156Y121820D02*
X128299Y122963D01*
G01X95936Y90600D02*
X103400Y98064D01*
G01X89937Y84600D02*
X92336Y87000D01*
G01X64713Y59376D02*
X67261Y61925D01*
G01X6910Y1573D02*
X37000Y31664D01*
G01X152400Y144236D02*
X168796Y160632D01*
G01X140551Y132386D02*
X149200Y141035D01*
G01X129922Y121757D02*
X130059Y121894D01*
G01X98765Y90600D02*
X103400Y95235D01*
G01X92765Y84600D02*
X95164Y87000D01*
G01X66265Y58100D02*
X67600Y59435D01*
G01X42496Y34331D02*
X42601Y34436D01*
G01X9665Y1500D02*
X29651Y21486D01*
G01X152400Y141407D02*
X169340Y158347D01*
G01X142237Y131244D02*
X149200Y138207D01*
G01X102593Y91600D02*
X104298Y93305D01*
G01X95593Y84600D02*
X97993Y87000D01*
G01X42496Y31503D02*
X44015Y33022D01*
G01X35337Y24343D02*
X39298Y28305D01*
G01X12493Y1500D02*
X29987Y18994D01*
G01X152400Y138579D02*
X170337Y156515D01*
G01X141497Y127676D02*
X149200Y135378D01*
G01X105038Y91216D02*
X107121Y93300D01*
G01X98422Y84600D02*
X100034Y86212D01*
G01X42692Y28871D02*
X45429Y31608D01*
G01X36861Y23040D02*
X40429Y26608D01*
G01X15322Y1500D02*
X31291Y17469D01*
G01X158414Y141764D02*
X171690Y155040D01*
G01X152400Y135750D02*
X157000Y140350D01*
G01X142118Y125468D02*
X149200Y132550D01*
G01X108250Y91600D02*
X111650Y95000D01*
G01X105250Y88600D02*
X107150Y90500D01*
G01X101250Y84600D02*
X102650Y86000D01*
G01X44106Y27456D02*
X46844Y30194D01*
G01X37579Y20929D02*
X41843Y25193D01*
G01X18150Y1500D02*
X33402Y16752D01*
G01X161242Y141764D02*
X173387Y153909D01*
G01X152400Y132922D02*
X157000Y137521D01*
G01X142135Y122657D02*
X149478Y129999D01*
G01X111079Y91600D02*
X114478Y95000D01*
G01X103846Y84368D02*
X107150Y87671D01*
G01X45183Y25705D02*
X48258Y28779D01*
G01X34182Y14703D02*
X39628Y20149D01*
G01X20978Y1500D02*
X29628Y10149D01*
G01X164068Y141762D02*
X175488Y153181D01*
G01X153135Y130828D02*
X157002Y134695D01*
G01X144118Y121812D02*
X150872Y128565D01*
G01X112907Y90600D02*
X117307Y95000D01*
G01X105261Y82954D02*
X108150Y85843D01*
G01X46135Y23828D02*
X49672Y27365D01*
G01X36135Y13828D02*
X40502Y18196D01*
G01X23807Y1500D02*
X30502Y8196D01*
G01X165000Y139865D02*
X175665Y150530D01*
G01X154657Y129522D02*
X158899Y133764D01*
G01X145573Y120438D02*
X152286Y127151D01*
G01X141259Y116124D02*
X141725Y116590D01*
G01X115736Y90600D02*
X123406Y98271D01*
G01X105700Y80565D02*
X108267Y83132D01*
G01X47317Y22182D02*
X51086Y25951D01*
G01X37317Y12182D02*
X42149Y17014D01*
G01X26635Y1500D02*
X32149Y7014D01*
G01X165000Y137037D02*
X175665Y147702D01*
G01X159651Y131687D02*
X161727Y133764D01*
G01X142299Y114335D02*
X154285Y126321D01*
G01X118564Y90600D02*
X123565Y95601D01*
G01X112114Y84150D02*
X114964Y87000D01*
G01X105700Y77737D02*
X110350Y82386D01*
G01X47341Y19377D02*
X49709Y21745D01*
G01X42586Y14622D02*
X44954Y16990D01*
G01X37341Y9377D02*
X39709Y11745D01*
G01X29464Y1500D02*
X34954Y6990D01*
G01X162444Y131652D02*
X175665Y144873D01*
G01X142076Y111284D02*
X157113Y126321D01*
G01X133248Y102456D02*
X133601Y102809D01*
G01X121392Y90600D02*
X125934Y95142D01*
G01X107092Y76300D02*
X117792Y87000D01*
G01X55199Y24407D02*
X55568Y24776D01*
G01X45199Y14407D02*
X49924Y19132D01*
G01X32292Y1500D02*
X39924Y9132D01*
G01X164086Y130466D02*
X175665Y142045D01*
G01X141652Y108032D02*
X158455Y124835D01*
G01X135147Y101526D02*
X136229Y102609D01*
G01X124221Y90600D02*
X128763Y95142D01*
G01X111567Y77946D02*
X120620Y87000D01*
G01X109921Y76300D02*
X110708Y77088D01*
G01X56777Y23156D02*
X58020Y24400D01*
G01X46777Y13156D02*
X51174Y17554D01*
G01X35121Y1500D02*
X41174Y7554D01*
G01X164957Y128508D02*
X175665Y139216D01*
G01X142347Y105898D02*
X160413Y123964D01*
G01X132492Y96043D02*
X138000Y101551D01*
G01X127049Y90600D02*
X131596Y95147D01*
G01X119417Y82968D02*
X123449Y87000D01*
G01X57566Y21117D02*
X60849Y24400D01*
G01X47566Y11117D02*
X53214Y16765D01*
G01X37949Y1500D02*
X43214Y6765D01*
G01X161342Y122064D02*
X175665Y136388D01*
G01X144190Y104912D02*
X157014Y117737D01*
G01X129878Y90600D02*
X140589Y101312D01*
G01X122245Y82968D02*
X126277Y87000D01*
G01X117232Y77955D02*
X119045Y79768D01*
G01X65074Y25797D02*
X65077Y25800D01*
G01X54003Y14726D02*
X59605Y20327D01*
G01X40777Y1500D02*
X49605Y10327D01*
G01X163391Y121286D02*
X175665Y133560D01*
G01X146076Y103970D02*
X157793Y115687D01*
G01X132706Y90600D02*
X143418Y101312D01*
G01X125074Y82968D02*
X129106Y87000D01*
G01X121706Y79600D02*
X121873Y79768D01*
G01X66023Y23918D02*
X67906Y25800D01*
G01X56023Y13918D02*
X60413Y18307D01*
G01X43606Y1500D02*
X50413Y8307D01*
G01X164650Y119716D02*
X175665Y130731D01*
G01X147490Y102556D02*
X159363Y114429D01*
G01X135534Y90600D02*
X144944Y100010D01*
G01X127902Y82968D02*
X131934Y87000D01*
G01X124535Y79600D02*
X124702Y79768D01*
G01X67259Y22325D02*
X70734Y25800D01*
G01X57259Y12325D02*
X62006Y17072D01*
G01X46434Y1500D02*
X52006Y7072D01*
G01X164884Y117121D02*
X175665Y127903D01*
G01X148673Y100911D02*
X161957Y114195D01*
G01X138362Y90599D02*
X145100Y97337D01*
G01X130731Y82968D02*
X134762Y87000D01*
G01X127363Y79600D02*
X127530Y79768D01*
G01X74663Y26900D02*
X74962Y27200D01*
G01X67436Y19673D02*
X69794Y22031D01*
G01X62300Y14537D02*
X64658Y16895D01*
G01X57436Y9673D02*
X59794Y12031D01*
G01X49263Y1500D02*
X54658Y6895D01*
G01X148700Y98109D02*
X175665Y125074D01*
G01X140232Y89640D02*
X144300Y93709D01*
G01X133559Y82968D02*
X137573Y86982D01*
G01X130191Y79600D02*
X130359Y79768D01*
G01X119195Y68604D02*
X119391Y68800D01*
G01X75300Y24709D02*
X77791Y27200D01*
G01X65058Y14466D02*
X69864Y19273D01*
G01X52091Y1500D02*
X59864Y9273D01*
G01X149088Y95669D02*
X175665Y122246D01*
G01X143060Y89640D02*
X144300Y90880D01*
G01X136388Y82968D02*
X139460Y86040D01*
G01X133020Y79600D02*
X133187Y79768D01*
G01X118651Y65231D02*
X122219Y68800D01*
G01X76688Y23269D02*
X80078Y26659D01*
G01X66689Y13269D02*
X71062Y17642D01*
G01X54920Y1500D02*
X61062Y7642D01*
G01X152281Y96033D02*
X175665Y119418D01*
G01X149500Y93252D02*
X150783Y94535D01*
G01X139216Y82968D02*
X142288Y86040D01*
G01X135848Y79600D02*
X136016Y79768D01*
G01X118651Y62403D02*
X125048Y68800D01*
G01X83755Y27508D02*
X84848Y28600D01*
G01X77545Y21297D02*
X81492Y25244D01*
G01X67545Y11297D02*
X73034Y16786D01*
G01X57748Y1500D02*
X63034Y6786D01*
G01X155109Y96033D02*
X175665Y116589D01*
G01X149500Y90424D02*
X150790Y91714D01*
G01X142044Y82968D02*
X144653Y85577D01*
G01X138246Y79169D02*
X138844Y79768D01*
G01X123636Y64560D02*
X127876Y68800D01*
G01X118601Y59524D02*
X121900Y62823D01*
G01X85074Y25998D02*
X87676Y28600D01*
G01X73818Y14741D02*
X79589Y20513D01*
G01X60576Y1500D02*
X69589Y10513D01*
G01X157937Y96033D02*
X175665Y113761D01*
G01X149646Y87741D02*
X151483Y89578D01*
G01X144873Y82968D02*
X147099Y85195D01*
G01X139660Y77755D02*
X141672Y79768D01*
G01X128548Y66644D02*
X130705Y68800D01*
G01X126414Y64509D02*
X127516Y65611D01*
G01X120045Y58140D02*
X122009Y60104D01*
G01X85908Y24003D02*
X89671Y27766D01*
G01X75908Y14003D02*
X80328Y18423D01*
G01X63405Y1500D02*
X70328Y8423D01*
G01X160688Y95955D02*
X175665Y110932D01*
G01X155084Y90350D02*
X155565Y90832D01*
G01X147660Y82927D02*
X148618Y83885D01*
G01X141074Y76341D02*
X144501Y79768D01*
G01X131001Y66268D02*
X133533Y68800D01*
G01X123774Y59040D02*
X124293Y59560D01*
G01X93348Y28615D02*
X94733Y30000D01*
G01X87197Y22463D02*
X91085Y26352D01*
G01X77196Y12463D02*
X81867Y17134D01*
G01X66233Y1500D02*
X71867Y7134D01*
G01X168736Y101175D02*
X175665Y108104D01*
G01X163994Y96433D02*
X166226Y98664D01*
G01X155720Y88159D02*
X158394Y90832D01*
G01X149246Y81685D02*
X150957Y83395D01*
G01X142488Y74926D02*
X146983Y79422D01*
G01X131615Y64053D02*
X136362Y68800D01*
G01X126513Y58951D02*
X130107Y62545D01*
G01X121992Y54431D02*
X122060Y54498D01*
G01X94761Y27200D02*
X97299Y29738D01*
G01X91971Y24409D02*
X91983Y24421D01*
G01X87500Y19938D02*
X89922Y22360D01*
G01X81971Y14409D02*
X84392Y16830D01*
G01X77500Y9938D02*
X79922Y12360D01*
G01X69062Y1500D02*
X74392Y6831D01*
G01X170370Y99980D02*
X175665Y105275D01*
G01X166694Y96304D02*
X167420Y97030D01*
G01X158549Y88158D02*
X162204Y91814D01*
G01X150660Y80270D02*
X153348Y82958D01*
G01X143902Y73512D02*
X148397Y78007D01*
G01X127100Y56710D02*
X138488Y68098D01*
G01X123407Y53016D02*
X124430Y54040D01*
G01X100976Y30586D02*
X101790Y31400D01*
G01X95183Y24793D02*
X98714Y28323D01*
G01X84911Y14521D02*
X89810Y19419D01*
G01X71890Y1500D02*
X79810Y9419D01*
G01X171441Y98222D02*
X175665Y102447D01*
G01X167204Y93986D02*
X168504Y95286D01*
G01X161046Y87828D02*
X163651Y90432D01*
G01X153503Y80285D02*
X156177Y82958D01*
G01X145316Y72098D02*
X149812Y76593D01*
G01X125479Y52260D02*
X139902Y66684D01*
G01X102391Y29172D02*
X104618Y31400D01*
G01X96597Y23378D02*
X100128Y26909D01*
G01X86597Y13378D02*
X90952Y17734D01*
G01X74719Y1500D02*
X80952Y7734D01*
G01X172597Y96550D02*
X175665Y99618D01*
G01X167148Y91101D02*
X168504Y92457D01*
G01X164606Y88559D02*
X166536Y90488D01*
G01X156332Y80285D02*
X159005Y82958D01*
G01X146731Y70684D02*
X151272Y75225D01*
G01X127100Y51053D02*
X141316Y65269D01*
G01X103805Y27758D02*
X106642Y30595D01*
G01X97517Y21470D02*
X101542Y25495D01*
G01X87517Y11470D02*
X92860Y16814D01*
G01X77547Y1500D02*
X82860Y6814D01*
G01X173505Y94629D02*
X175665Y96790D01*
G01X167017Y88142D02*
X169324Y90448D01*
G01X159160Y80284D02*
X162226Y83350D01*
G01X148145Y69270D02*
X153960Y75084D01*
G01X140476Y61600D02*
X142730Y63855D01*
G01X129894Y51019D02*
X139260Y60384D01*
G01X110319Y31444D02*
X111675Y32800D01*
G01X105100Y26225D02*
X108056Y29181D01*
G01X93623Y14748D02*
X99583Y20707D01*
G01X80375Y1500D02*
X89583Y10707D01*
G01X173505Y91801D02*
X175665Y93962D01*
G01X167205Y85501D02*
X172136Y90432D01*
G01X161264Y79561D02*
X164262Y82558D01*
G01X148500Y66796D02*
X156788Y75084D01*
G01X143303Y61599D02*
X143700Y61996D01*
G01X131364Y49661D02*
X139260Y57556D01*
G01X111733Y30030D02*
X114220Y32517D01*
G01X105789Y24085D02*
X109470Y27767D01*
G01X95789Y14085D02*
X100246Y18542D01*
G01X83204Y1500D02*
X90246Y8542D01*
G01X165217Y80685D02*
X175665Y91133D01*
G01X148500Y63968D02*
X159616Y75084D01*
G01X130900Y46368D02*
X140932Y56400D01*
G01X127082Y42550D02*
X127172Y42640D01*
G01X126100Y41568D02*
X126290Y41758D01*
G01X117898Y33365D02*
X118732Y34200D01*
G01X113148Y28615D02*
X115634Y31102D01*
G01X107130Y22598D02*
X110885Y26352D01*
G01X97130Y12598D02*
X101733Y17201D01*
G01X86032Y1500D02*
X91733Y7201D01*
G01X167194Y79833D02*
X175665Y88305D01*
G01X150361Y63000D02*
X162422Y75061D01*
G01X127561Y40200D02*
X144760Y57400D01*
G01X119312Y31951D02*
X121560Y34200D01*
G01X114562Y27201D02*
X117049Y29688D01*
G01X111560Y24199D02*
X111982Y24622D01*
G01X107543Y20182D02*
X110132Y22771D01*
G01X101559Y14199D02*
X104149Y16788D01*
G01X97543Y10182D02*
X100132Y12771D01*
G01X88861Y1500D02*
X92649Y5288D01*
G01X167205Y77016D02*
X175665Y85476D01*
G01X153189Y63000D02*
X164873Y74684D01*
G01X146360Y56171D02*
X146862Y56672D01*
G01X141789Y51600D02*
X143829Y53640D01*
G01X130389Y40200D02*
X139260Y49070D01*
G01X120726Y30537D02*
X123763Y33574D01*
G01X115183Y24994D02*
X118463Y28274D01*
G01X104760Y14571D02*
X109760Y19571D01*
G01X96326Y6137D02*
X99760Y9571D01*
G01X91689Y1500D02*
X94063Y3874D01*
G01X157178Y64160D02*
X175665Y82648D01*
G01X133218Y40200D02*
X139636Y46618D01*
G01X127440Y34423D02*
X128617Y35600D01*
G01X122140Y29123D02*
X125177Y32160D01*
G01X116501Y23484D02*
X119877Y26860D01*
G01X106501Y13484D02*
X110847Y17829D01*
G01X94518Y1500D02*
X100847Y7830D01*
G01X158846Y63000D02*
X175665Y79820D01*
G01X136020Y40174D02*
X142121Y46275D01*
G01X128854Y33008D02*
X131141Y35296D01*
G01X123554Y27708D02*
X126591Y30745D01*
G01X117483Y21637D02*
X121291Y25446D01*
G01X107483Y11637D02*
X112694Y16848D01*
G01X97346Y1500D02*
X102694Y6848D01*
G01X161675Y63000D02*
X175665Y76991D01*
G01X137634Y38960D02*
X143539Y44865D01*
G01X134819Y36144D02*
X135371Y36697D01*
G01X130269Y31594D02*
X132556Y33881D01*
G01X124940Y26265D02*
X128006Y29331D01*
G01X113419Y14745D02*
X119586Y20912D01*
G01X100174Y1500D02*
X109586Y10912D01*
G01X164503Y63000D02*
X175665Y74163D01*
G01X144101Y42598D02*
X145983Y44480D01*
G01X139048Y37546D02*
X141902Y40399D01*
G01X136233Y34730D02*
X136785Y35282D01*
G01X131683Y30180D02*
X133970Y32467D01*
G01X125666Y24163D02*
X129420Y27917D01*
G01X115666Y14163D02*
X120168Y18665D01*
G01X103003Y1500D02*
X110168Y8665D01*
G01X166073Y61742D02*
X175665Y71334D01*
G01X146028Y41697D02*
X146900Y42569D01*
G01X140462Y36131D02*
X141900Y37569D01*
G01X137647Y33316D02*
X138199Y33868D01*
G01X133097Y28766D02*
X135384Y31053D01*
G01X127059Y22728D02*
X130834Y26503D01*
G01X117059Y12728D02*
X121603Y17272D01*
G01X105831Y1500D02*
X111603Y7272D01*
G01X167487Y60328D02*
X175665Y68506D01*
G01X146500Y39341D02*
X147222Y40063D01*
G01X141877Y34717D02*
X141900Y34740D01*
G01X139061Y31902D02*
X139614Y32454D01*
G01X134511Y27352D02*
X136798Y29639D01*
G01X127569Y20409D02*
X131982Y24823D01*
G01X117568Y10409D02*
X123922Y16762D01*
G01X108660Y1500D02*
X113922Y6762D01*
G01X168700Y58712D02*
X175665Y65677D01*
G01X146501Y36512D02*
X149288Y39300D01*
G01X140476Y30487D02*
X141028Y31040D01*
G01X135183Y25195D02*
X138212Y28224D01*
G01X124604Y14616D02*
X129715Y19727D01*
G01X111488Y1500D02*
X119715Y9727D01*
G01X168700Y55884D02*
X175665Y62849D01*
G01X147185Y34368D02*
X152116Y39300D01*
G01X141890Y29073D02*
X142442Y29626D01*
G01X136402Y23586D02*
X139627Y26810D01*
G01X126402Y13586D02*
X130745Y17928D01*
G01X114316Y1500D02*
X120745Y7928D01*
G01X168700Y53055D02*
X175665Y60021D01*
G01X148599Y32954D02*
X154442Y38797D01*
G01X143304Y27659D02*
X143856Y28211D01*
G01X137443Y21798D02*
X141041Y25396D01*
G01X127443Y11798D02*
X132533Y16888D01*
G01X117145Y1500D02*
X122533Y6888D01*
G01X168700Y50227D02*
X175665Y57192D01*
G01X150013Y31540D02*
X156090Y37616D01*
G01X144718Y26245D02*
X145270Y26797D01*
G01X136631Y18157D02*
X139601Y21127D01*
G01X133204Y14730D02*
X136173Y17700D01*
G01X126631Y8157D02*
X129601Y11127D01*
G01X119973Y1500D02*
X126173Y7700D01*
G01X168700Y47399D02*
X175665Y54364D01*
G01X151654Y30352D02*
X160602Y39300D01*
G01X145539Y24237D02*
X146685Y25383D01*
G01X135539Y14237D02*
X140093Y18792D01*
G01X122802Y1500D02*
X130094Y8792D01*
G01X168700Y44570D02*
X175665Y51535D01*
G01X154482Y30352D02*
X163430Y39300D01*
G01X146984Y22854D02*
X148099Y23969D01*
G01X136984Y12854D02*
X141477Y17347D01*
G01X125630Y1500D02*
X131477Y7347D01*
G01X168700Y41742D02*
X175665Y48707D01*
G01X157176Y30217D02*
X166258Y39300D01*
G01X147581Y20622D02*
X149513Y22554D01*
G01X137581Y10622D02*
X143708Y16750D01*
G01X128459Y1500D02*
X133708Y6750D01*
G01X158746Y28959D02*
X175665Y45878D01*
G01X144442Y14655D02*
X149676Y19889D01*
G01X131287Y1500D02*
X139676Y9889D01*
G01X160155Y27539D02*
X175665Y43050D01*
G01X146300Y13684D02*
X150647Y18031D01*
G01X134116Y1500D02*
X140647Y8031D01*
G01X160700Y25256D02*
X175665Y40222D01*
G01X147397Y11953D02*
X152378Y16934D01*
G01X136944Y1500D02*
X142378Y6934D01*
G01X168672Y30400D02*
X175665Y37393D01*
G01X163021Y24748D02*
X166500Y28228D01*
G01X152974Y14702D02*
X155521Y17249D01*
G01X147082Y8810D02*
X149629Y11357D01*
G01X139772Y1500D02*
X145521Y7249D01*
G01X170527Y29426D02*
X175665Y34565D01*
G01X165849Y24748D02*
X167100Y25999D01*
G01X155408Y14307D02*
X156240Y15139D01*
G01X142601Y1500D02*
X150023Y8922D01*
G01X170300Y26371D02*
X175665Y31736D01*
G01X156905Y12976D02*
X157503Y13574D01*
G01X145429Y1500D02*
X151355Y7426D01*
G01X170300Y23543D02*
X175665Y28908D01*
G01X157582Y10825D02*
X158918Y12160D01*
G01X148258Y1500D02*
X153506Y6748D01*
G01X171827Y22241D02*
X175665Y26079D01*
G01X170300Y20714D02*
X170672Y21086D01*
G01X151086Y1500D02*
X159643Y10057D01*
G01X153914Y1500D02*
X160552Y8137D01*
G01X156743Y1500D02*
X162227Y6984D01*
G01X159571Y1500D02*
X165131Y7060D01*
G01X170300Y9400D02*
X170968Y10069D01*
G01X162400Y1500D02*
X166502Y5602D01*
G01X170577Y6848D02*
X172490Y8762D01*
G01X165228Y1500D02*
X167552Y3823D01*
G01X168057Y1500D02*
X174375Y7819D01*
G01X171167Y1782D02*
X175383Y5998D01*
G01X7053Y1553D02*
X1553Y7053D01*
G01X9935Y1500D02*
X3382Y8053D01*
G01X12763Y1500D02*
X5155Y9108D01*
G01X15592Y1500D02*
X6577Y10514D01*
G01X18420Y1500D02*
X7652Y12268D01*
G01X21248Y1500D02*
X8304Y14444D01*
G01X1571Y24006D02*
X1500Y24077D01*
G01X24077Y1500D02*
X8258Y17319D01*
G01X26905Y1500D02*
X1500Y26905D01*
G01X29734Y1500D02*
X1500Y29734D01*
G01X32562Y1500D02*
X1500Y32562D01*
G01X35391Y1500D02*
X1500Y35391D01*
G01X29638Y10080D02*
X1500Y38219D01*
G01X38219Y1500D02*
X32915Y6804D01*
G01X30007Y12541D02*
X1500Y41047D01*
G01X41047Y1500D02*
X35376Y7172D01*
G01X31325Y14050D02*
X1500Y43876D01*
G01X43876Y1500D02*
X36885Y8491D01*
G01X33458Y14746D02*
X1500Y46704D01*
G01X46704Y1500D02*
X37581Y10623D01*
G01X29636Y21397D02*
X1500Y49533D01*
G01X39636Y11397D02*
X34232Y16801D01*
G01X49533Y1500D02*
X44232Y6801D01*
G01X6760Y47102D02*
X1500Y52361D01*
G01X30529Y23332D02*
X8812Y45049D01*
G01X40529Y13332D02*
X36167Y17694D01*
G01X52361Y1500D02*
X46167Y7694D01*
G01X7663Y49026D02*
X1500Y55190D01*
G01X14907Y41783D02*
X11045Y45645D01*
G01X17896Y38793D02*
X17517Y39172D01*
G01X31982Y24707D02*
X20523Y36167D01*
G01X42191Y14498D02*
X37333Y19356D01*
G01X55190Y1500D02*
X47333Y9356D01*
G01X7159Y52359D02*
X1500Y58018D01*
G01X16201Y43317D02*
X13873Y45645D01*
G01X32677Y26841D02*
X23351Y36167D01*
G01X39690Y19828D02*
X37305Y22213D01*
G01X45048Y14470D02*
X42663Y16855D01*
G01X49690Y9828D02*
X47305Y12213D01*
G01X58018Y1500D02*
X52663Y6855D01*
G01X6686Y55660D02*
X1500Y60846D01*
G01X21029Y41317D02*
X16692Y45655D01*
G01X34092Y28255D02*
X26164Y36183D01*
G01X39942Y22405D02*
X36355Y25992D01*
G01X49942Y12405D02*
X45240Y17107D01*
G01X60846Y1500D02*
X55240Y7107D01*
G01X8010Y57165D02*
X1500Y63675D01*
G01X23857Y41317D02*
X19220Y45955D01*
G01X35506Y29669D02*
X26987Y38188D01*
G01X41208Y23967D02*
X37769Y27406D01*
G01X51208Y13967D02*
X46802Y18373D01*
G01X63675Y1500D02*
X56802Y8373D01*
G01X3000Y65004D02*
X1500Y66503D01*
G01X7553Y60450D02*
X6611Y61392D01*
G01X36920Y31083D02*
X20390Y47613D01*
G01X39295Y28708D02*
X39183Y28820D01*
G01X53268Y14736D02*
X47570Y20433D01*
G01X66503Y1500D02*
X57570Y10433D01*
G01X3000Y67832D02*
X1500Y69332D01*
G01X37000Y33832D02*
X23771Y47061D01*
G01X49610Y21221D02*
X45183Y25649D01*
G01X59610Y11221D02*
X54056Y16776D01*
G01X69332Y1500D02*
X64056Y6776D01*
G01X3000Y70660D02*
X1500Y72160D01*
G01X25450Y48210D02*
X25329Y48331D01*
G01X37000Y36660D02*
X28005Y45655D01*
G01X50439Y23221D02*
X42496Y31164D01*
G01X60439Y13221D02*
X56056Y17604D01*
G01X72160Y1500D02*
X66056Y7604D01*
G01X3170Y73318D02*
X1500Y74988D01*
G01X37000Y39489D02*
X30844Y45645D01*
G01X51983Y24506D02*
X42496Y33993D01*
G01X62047Y14442D02*
X57276Y19212D01*
G01X74988Y1500D02*
X67276Y9212D01*
G01X4527Y74790D02*
X1500Y77817D01*
G01X59766Y19551D02*
X57412Y21905D01*
G01X64740Y14577D02*
X62386Y16931D01*
G01X69766Y9551D02*
X67412Y11905D01*
G01X77817Y1500D02*
X72386Y6931D01*
G01X5954Y76191D02*
X1500Y80645D01*
G01X59881Y22264D02*
X57746Y24400D01*
G01X69881Y12264D02*
X65099Y17046D01*
G01X80645Y1500D02*
X75099Y7046D01*
G01X8474Y76500D02*
X1500Y83474D01*
G01X61094Y23880D02*
X60574Y24400D01*
G01X71094Y13880D02*
X66715Y18259D01*
G01X83474Y1500D02*
X76715Y8259D01*
G01X11302Y76500D02*
X1500Y86302D01*
G01X73085Y14717D02*
X67552Y20250D01*
G01X86302Y1500D02*
X77552Y10250D01*
G01X14131Y76500D02*
X1500Y89131D01*
G01X69593Y21038D02*
X65163Y25468D01*
G01X79593Y11038D02*
X73872Y16758D01*
G01X89131Y1500D02*
X83872Y6758D01*
G01X15244Y78215D02*
X1500Y91959D01*
G01X70352Y23107D02*
X67659Y25800D01*
G01X80352Y13107D02*
X75942Y17517D01*
G01X91959Y1500D02*
X85942Y7517D01*
G01X17139Y79149D02*
X1500Y94788D01*
G01X71907Y24381D02*
X70488Y25800D01*
G01X81907Y14380D02*
X77215Y19072D01*
G01X94788Y1500D02*
X87215Y9072D01*
G01X17902Y81214D02*
X1500Y97616D01*
G01X79879Y19237D02*
X77484Y21632D01*
G01X84467Y14649D02*
X82072Y17044D01*
G01X89879Y9237D02*
X87484Y11632D01*
G01X97616Y1500D02*
X95851Y3265D01*
G01X19841Y82103D02*
X1500Y100444D01*
G01X79825Y22120D02*
X74745Y27200D01*
G01X89825Y12120D02*
X84954Y16990D01*
G01X100444Y1500D02*
X96993Y4952D01*
G01X22670Y82103D02*
X1500Y103273D01*
G01X80984Y23789D02*
X77573Y27200D01*
G01X90984Y13789D02*
X86624Y18149D01*
G01X103273Y1500D02*
X96624Y8149D01*
G01X25498Y82103D02*
X1500Y106101D01*
G01X29148Y78453D02*
X26987Y80614D01*
G01X92910Y14691D02*
X87526Y20075D01*
G01X106101Y1500D02*
X97526Y10075D01*
G01X31976Y78453D02*
X1500Y108930D01*
G01X89584Y20846D02*
X85183Y25247D01*
G01X99584Y10846D02*
X93681Y16749D01*
G01X108930Y1500D02*
X103681Y6749D01*
G01X34805Y78453D02*
X1500Y111758D01*
G01X90269Y22989D02*
X84658Y28600D01*
G01X100269Y12989D02*
X95824Y17434D01*
G01X111758Y1500D02*
X105824Y7434D01*
G01X37619Y78467D02*
X1500Y114587D01*
G01X91772Y24315D02*
X87487Y28600D01*
G01X101772Y14315D02*
X97150Y18937D01*
G01X114587Y1500D02*
X107150Y8937D01*
G01X40462Y78453D02*
X1500Y117415D01*
G01X100057Y18858D02*
X97532Y21383D01*
G01X104217Y14698D02*
X101692Y17223D01*
G01X110057Y8858D02*
X107532Y11383D01*
G01X117415Y1500D02*
X111692Y7223D01*
G01X47400Y74344D02*
X1500Y120243D01*
G01X99774Y21970D02*
X95091Y26653D01*
G01X109774Y11970D02*
X104805Y16939D01*
G01X120243Y1500D02*
X114805Y6939D01*
G01X47445Y77127D02*
X1500Y123072D01*
G01X66472Y58100D02*
X51000Y73572D01*
G01X100877Y23695D02*
X94572Y30000D01*
G01X110877Y13695D02*
X106529Y18042D01*
G01X123072Y1500D02*
X116529Y8043D01*
G01X49410Y77990D02*
X1500Y125900D01*
G01X55400Y72000D02*
X51390Y76010D01*
G01X67600Y59800D02*
X58400Y69000D01*
G01X112742Y14659D02*
X107494Y19907D01*
G01X125900Y1500D02*
X117494Y9907D01*
G01X55400Y74829D02*
X1500Y128729D01*
G01X63000Y67229D02*
X61229Y69000D01*
G01X109584Y20645D02*
X105183Y25046D01*
G01X119584Y10645D02*
X113480Y16749D01*
G01X128729Y1500D02*
X123480Y6749D01*
G01X55400Y77657D02*
X1500Y131557D01*
G01X110190Y22867D02*
X101657Y31400D01*
G01X120190Y12867D02*
X115702Y17355D01*
G01X131557Y1500D02*
X125702Y7355D01*
G01X55400Y80486D02*
X1500Y134386D01*
G01X111641Y24245D02*
X104486Y31400D01*
G01X121640Y14245D02*
X117080Y18806D01*
G01X134386Y1500D02*
X127080Y8806D01*
G01X55950Y82764D02*
X1500Y137214D01*
G01X120437Y18277D02*
X117563Y21151D01*
G01X123986Y14728D02*
X121112Y17602D01*
G01X130437Y8277D02*
X127562Y11152D01*
G01X137214Y1500D02*
X131112Y7602D01*
G01X57364Y84178D02*
X1500Y140042D01*
G01X119727Y21815D02*
X115091Y26451D01*
G01X129727Y11815D02*
X124650Y16893D01*
G01X140042Y1500D02*
X134650Y6893D01*
G01X59771Y84600D02*
X1500Y142871D01*
G01X120774Y23597D02*
X111571Y32800D01*
G01X130774Y13597D02*
X126431Y17940D01*
G01X142871Y1500D02*
X136431Y7939D01*
G01X62599Y84600D02*
X1500Y145699D01*
G01X132579Y14620D02*
X127455Y19744D01*
G01X145699Y1500D02*
X137455Y9744D01*
G01X65427Y84600D02*
X1500Y148528D01*
G01X129595Y20433D02*
X125183Y24845D01*
G01X139595Y10433D02*
X133268Y16760D01*
G01X148528Y1500D02*
X143268Y6760D01*
G01X68256Y84600D02*
X1500Y151356D01*
G01X130115Y22742D02*
X118656Y34200D01*
G01X140115Y12742D02*
X135576Y17280D01*
G01X151356Y1500D02*
X145576Y7280D01*
G01X71084Y84600D02*
X2341Y153344D01*
G01X131513Y24171D02*
X121485Y34200D01*
G01X141513Y14171D02*
X137006Y18678D01*
G01X154184Y1500D02*
X147006Y8678D01*
G01X73913Y84600D02*
X4312Y154202D01*
G01X143769Y14744D02*
X137579Y20934D01*
G01X157013Y1500D02*
X147579Y10934D01*
G01X76741Y84600D02*
X5906Y155436D01*
G01X139687Y21655D02*
X135176Y26165D01*
G01X149687Y11655D02*
X144490Y16852D01*
G01X159841Y1500D02*
X154490Y6852D01*
G01X9582Y154587D02*
X7158Y157011D01*
G01X79570Y84600D02*
X11753Y152417D01*
G01X140675Y23495D02*
X128570Y35600D01*
G01X150675Y13495D02*
X146330Y17840D01*
G01X162670Y1500D02*
X156330Y7840D01*
G01X9582Y157416D02*
X8039Y158960D01*
G01X51953Y115045D02*
X14581Y152417D01*
G01X82398Y84600D02*
X55875Y111124D01*
G01X126798Y40200D02*
X126076Y40922D01*
G01X152422Y14576D02*
X147411Y19587D01*
G01X165498Y1500D02*
X157411Y9587D01*
G01X9794Y160033D02*
X8406Y161421D01*
G01X53222Y116604D02*
X17198Y152629D01*
G01X85226Y84600D02*
X57434Y112393D01*
G01X129626Y40200D02*
X127187Y42640D01*
G01X145660Y24166D02*
X145183Y24644D01*
G01X149619Y20208D02*
X147001Y22826D01*
G01X155660Y14166D02*
X153042Y16784D01*
G01X159619Y10208D02*
X157001Y12826D01*
G01X168327Y1500D02*
X163042Y6784D01*
G01X3681Y168974D02*
X1717Y170939D01*
G01X12238Y160418D02*
X7557Y165098D01*
G01X55730Y116925D02*
X17583Y155072D01*
G01X72050Y100605D02*
X57754Y114901D01*
G01X88055Y84600D02*
X85655Y87000D01*
G01X132455Y40200D02*
X128959Y43696D01*
G01X156100Y16555D02*
X155447Y17208D01*
G01X166539Y6116D02*
X165447Y7208D01*
G01X170938Y1717D02*
X169116Y3539D01*
G01X9621Y165862D02*
X2605Y172878D01*
G01X15066Y160418D02*
X13028Y162456D01*
G01X19621Y155862D02*
X17583Y157901D01*
G01X72050Y103434D02*
X48084Y127400D01*
G01X90883Y84600D02*
X88484Y87000D01*
G01X135283Y40200D02*
X130373Y45110D01*
G01X167100Y8384D02*
X166928Y8555D01*
G01X172878Y2605D02*
X170700Y4783D01*
G01X10039Y168273D02*
X3977Y174335D01*
G01X20039Y158273D02*
X15438Y162874D01*
G01X47712Y130600D02*
X25438Y152874D01*
G01X72050Y106262D02*
X50912Y127400D01*
G01X87712Y90600D02*
X75650Y102662D01*
G01X93712Y84600D02*
X91312Y87000D01*
G01X120171Y58140D02*
X118601Y59711D01*
G01X126052Y52260D02*
X124272Y54040D01*
G01X127801Y50511D02*
X127100Y51212D01*
G01X141900Y36412D02*
X130911Y47401D01*
G01X174335Y3977D02*
X170300Y8012D01*
G01X11382Y169758D02*
X5816Y175324D01*
G01X21382Y159758D02*
X16923Y164217D01*
G01X50540Y130600D02*
X26924Y154217D01*
G01X72050Y109091D02*
X53741Y127400D01*
G01X90540Y90600D02*
X75650Y105490D01*
G01X96540Y84600D02*
X94141Y87000D01*
G01X122300Y58840D02*
X118651Y62490D01*
G01X130261Y50879D02*
X126807Y54333D01*
G01X141900Y39240D02*
X131279Y49861D01*
G01X170456Y10685D02*
X170300Y10840D01*
G01X175324Y5816D02*
X172102Y9038D01*
G01X13551Y170417D02*
X8303Y175665D01*
G01X23551Y160417D02*
X17583Y166386D01*
G01X31982Y151986D02*
X27583Y156386D01*
G01X72050Y111919D02*
X56569Y127400D01*
G01X93369Y90600D02*
X84269Y99700D01*
G01X99369Y84600D02*
X96969Y87000D01*
G01X107669Y76300D02*
X105700Y78269D01*
G01X121900Y62069D02*
X118651Y65318D01*
G01X124928Y59040D02*
X124409Y59560D01*
G01X142330Y41639D02*
X127100Y56869D01*
G01X153617Y30352D02*
X146500Y37468D01*
G01X19650Y167148D02*
X11132Y175665D01*
G01X29650Y157148D02*
X24313Y162484D01*
G01X72050Y114747D02*
X59397Y127400D01*
G01X96197Y90600D02*
X87097Y99700D01*
G01X102197Y84600D02*
X100797Y86000D01*
G01X110497Y76300D02*
X105700Y81097D01*
G01X122382Y64415D02*
X119698Y67099D01*
G01X139260Y47538D02*
X126873Y59925D01*
G01X144197Y42600D02*
X140397Y46400D01*
G01X156445Y30352D02*
X146500Y40297D01*
G01X162049Y24748D02*
X160700Y26097D01*
G01X20573Y169053D02*
X13960Y175665D01*
G01X30573Y159053D02*
X26218Y163408D01*
G01X56375Y133250D02*
X36218Y153408D01*
G01X72050Y117576D02*
X62226Y127400D01*
G01X99025Y90600D02*
X89926Y99700D01*
G01X111671Y77955D02*
X103626Y86000D01*
G01X125066Y64560D02*
X120826Y68800D01*
G01X139260Y50366D02*
X128364Y61261D01*
G01X146900Y42726D02*
X145146Y44480D01*
G01X164877Y24748D02*
X150326Y39300D01*
G01X22261Y170193D02*
X16789Y175665D01*
G01X32261Y160193D02*
X27358Y165096D01*
G01X42321Y150133D02*
X37358Y155096D01*
G01X59204Y133250D02*
X58716Y133738D01*
G01X72050Y120404D02*
X65054Y127400D01*
G01X100854Y91600D02*
X92754Y99700D01*
G01X107755Y84699D02*
X105250Y87204D01*
G01X113096Y79358D02*
X110099Y82355D01*
G01X127346Y65108D02*
X123654Y68800D01*
G01X140854Y51600D02*
X129948Y62506D01*
G01X167100Y25354D02*
X153154Y39300D01*
G01X170996Y21458D02*
X170300Y22154D01*
G01X25212Y170071D02*
X19617Y175665D01*
G01X29663Y165620D02*
X27236Y168046D01*
G01X35212Y160071D02*
X32785Y162497D01*
G01X39663Y155620D02*
X37236Y158046D01*
G01X62032Y133250D02*
X61883Y133400D01*
G01X72050Y123233D02*
X67883Y127400D01*
G01X103682Y91600D02*
X95583Y99700D01*
G01X107150Y88133D02*
X105250Y90032D01*
G01X114510Y80773D02*
X111847Y83435D01*
G01X117327Y77955D02*
X116773Y78510D01*
G01X128610Y66672D02*
X126483Y68800D01*
G01X143833Y51450D02*
X131512Y63770D01*
G01X166562Y28720D02*
X157344Y37938D01*
G01X172525Y22757D02*
X170300Y24982D01*
G01X29972Y168139D02*
X22446Y175665D01*
G01X39972Y158139D02*
X35304Y162806D01*
G01X61511Y136600D02*
X45304Y152806D01*
G01X64860Y133250D02*
X64711Y133400D01*
G01X71988Y126123D02*
X70711Y127400D01*
G01X103400Y94711D02*
X98411Y99700D01*
G01X107199Y90912D02*
X104811Y93300D01*
G01X115924Y82187D02*
X112062Y86050D01*
G01X118898Y79213D02*
X118343Y79768D01*
G01X139260Y58851D02*
X129311Y68800D01*
G01X143819Y54292D02*
X141711Y56400D01*
G01X167872Y30239D02*
X158811Y39300D01*
G01X174419Y23692D02*
X170739Y27372D01*
G01X31263Y169676D02*
X25274Y175665D01*
G01X41263Y159676D02*
X36842Y164098D01*
G01X64339Y136600D02*
X46842Y154098D01*
G01X67689Y133250D02*
X67540Y133400D01*
G01X73790Y127149D02*
X73540Y127400D01*
G01X103400Y97540D02*
X101240Y99700D01*
G01X109339Y91600D02*
X107640Y93300D01*
G01X117971Y82968D02*
X113940Y87000D01*
G01X121339Y79600D02*
X121172Y79768D01*
G01X139593Y61346D02*
X132140Y68800D01*
G01X144986Y55953D02*
X144093Y56846D01*
G01X175665Y25274D02*
X161640Y39300D01*
G01X33357Y170411D02*
X28102Y175665D01*
G01X43357Y160411D02*
X37577Y166191D01*
G01X51983Y151785D02*
X47577Y156191D01*
G01X70517Y133250D02*
X70368Y133400D01*
G01X113168Y90600D02*
X109000Y94768D01*
G01X120800Y82968D02*
X116768Y87000D01*
G01X124168Y79600D02*
X124000Y79768D01*
G01X142168Y61600D02*
X134968Y68800D01*
G01X147700Y56068D02*
X147397Y56371D01*
G01X175665Y28102D02*
X164468Y39300D01*
G01X39622Y166975D02*
X30931Y175665D01*
G01X49621Y156975D02*
X44140Y162456D01*
G01X73346Y133250D02*
X73196Y133400D01*
G01X115996Y90600D02*
X111596Y95000D01*
G01X123628Y82968D02*
X119596Y87000D01*
G01X126996Y79600D02*
X126829Y79768D01*
G01X175665Y30931D02*
X167055Y39541D01*
G01X40481Y168944D02*
X33759Y175665D01*
G01X50481Y158944D02*
X46109Y163316D01*
G01X70424Y139000D02*
X56109Y153316D01*
G01X118824Y90600D02*
X114425Y95000D01*
G01X126457Y82968D02*
X122425Y87000D01*
G01X129824Y79600D02*
X129657Y79768D01*
G01X175665Y33759D02*
X168470Y40955D01*
G01X42115Y170138D02*
X36588Y175665D01*
G01X52115Y160138D02*
X47304Y164949D01*
G01X73253Y139000D02*
X57304Y154949D01*
G01X121653Y90600D02*
X117253Y95000D01*
G01X129285Y82968D02*
X125253Y87000D01*
G01X132653Y79600D02*
X132486Y79768D01*
G01X149253Y63000D02*
X148500Y63753D01*
G01X175665Y36588D02*
X168700Y43553D01*
G01X44880Y170201D02*
X39416Y175665D01*
G01X49726Y165356D02*
X47367Y167715D01*
G01X54880Y160201D02*
X52521Y162560D01*
G01X59726Y155356D02*
X57367Y157715D01*
G01X124481Y90600D02*
X119928Y95154D01*
G01X132114Y82968D02*
X128082Y87000D01*
G01X135481Y79600D02*
X135314Y79768D01*
G01X152081Y63000D02*
X148500Y66581D01*
G01X175665Y39416D02*
X168700Y46381D01*
G01X49909Y168001D02*
X42244Y175665D01*
G01X59909Y158001D02*
X55166Y162744D01*
G01X76510Y141400D02*
X65183Y152727D01*
G01X127310Y90600D02*
X121428Y96482D01*
G01X134942Y82968D02*
X130910Y87000D01*
G01X154530Y63380D02*
X138142Y79768D01*
G01X175665Y42244D02*
X168700Y49210D01*
G01X51148Y169591D02*
X45073Y175665D01*
G01X61148Y159591D02*
X56756Y163982D01*
G01X79338Y141400D02*
X66756Y153982D01*
G01X123406Y97332D02*
X122842Y97896D01*
G01X130138Y90600D02*
X125596Y95142D01*
G01X137770Y82968D02*
X133739Y87000D01*
G01X156350Y64388D02*
X140971Y79768D01*
G01X175665Y45073D02*
X168700Y52038D01*
G01X53171Y170396D02*
X47901Y175665D01*
G01X63171Y160396D02*
X57562Y166005D01*
G01X71982Y151584D02*
X67562Y156005D01*
G01X132966Y90600D02*
X128425Y95142D01*
G01X140599Y82968D02*
X136567Y87000D01*
G01X160566Y63000D02*
X143799Y79768D01*
G01X175665Y47901D02*
X168700Y54866D01*
G01X59600Y166795D02*
X50730Y175665D01*
G01X69600Y156795D02*
X63960Y162435D01*
G01X135795Y90600D02*
X131253Y95142D01*
G01X143427Y82968D02*
X140355Y86040D01*
G01X163395Y63000D02*
X146628Y79768D01*
G01X175665Y50730D02*
X168700Y57695D01*
G01X60393Y168831D02*
X53558Y175665D01*
G01X70393Y158831D02*
X65996Y163227D01*
G01X85723Y143500D02*
X75996Y153227D01*
G01X138660Y90564D02*
X132497Y96727D01*
G01X146256Y82968D02*
X143184Y86040D01*
G01X175665Y53558D02*
X154140Y75084D01*
G01X61973Y170079D02*
X56387Y175665D01*
G01X71973Y160079D02*
X67245Y164807D01*
G01X82152Y149900D02*
X77245Y154807D01*
G01X142412Y89640D02*
X133892Y98160D01*
G01X151768Y80284D02*
X146712Y85340D01*
G01X175665Y56387D02*
X156968Y75084D01*
G01X64592Y170288D02*
X59215Y175665D01*
G01X69819Y165061D02*
X67453Y167427D01*
G01X74592Y160288D02*
X72226Y162654D01*
G01X79819Y155061D02*
X77453Y157427D01*
G01X132569Y102311D02*
X132072Y102809D01*
G01X144300Y90581D02*
X135393Y99488D01*
G01X154596Y80284D02*
X151922Y82958D01*
G01X175665Y59215D02*
X159796Y75084D01*
G01X69851Y167858D02*
X62043Y175665D01*
G01X79851Y157858D02*
X75023Y162686D01*
G01X91983Y145726D02*
X85183Y152526D01*
G01X144300Y93409D02*
X135100Y102609D01*
G01X150350Y87358D02*
X149500Y88209D01*
G01X157424Y80284D02*
X154751Y82958D01*
G01X162224Y75485D02*
X161625Y76084D01*
G01X175665Y62043D02*
X163005Y74704D01*
G01X71036Y169502D02*
X64872Y175665D01*
G01X81036Y159502D02*
X76667Y163870D01*
G01X91983Y148555D02*
X86667Y153870D01*
G01X101982Y138555D02*
X95183Y145354D01*
G01X144807Y95730D02*
X139226Y101312D01*
G01X151483Y89054D02*
X149500Y91037D01*
G01X160253Y80285D02*
X157579Y82958D01*
G01X175665Y64872D02*
X165853Y74684D01*
G01X72992Y170374D02*
X67700Y175665D01*
G01X82992Y160374D02*
X77539Y165827D01*
G01X91983Y151383D02*
X87539Y155827D01*
G01X101982Y141383D02*
X95183Y148183D01*
G01X109600Y133766D02*
X105183Y138183D01*
G01X145100Y98266D02*
X142054Y101312D01*
G01X150783Y92583D02*
X149500Y93866D01*
G01X155207Y88159D02*
X155084Y88282D01*
G01X162777Y80589D02*
X160403Y82963D01*
G01X175665Y67700D02*
X167205Y76161D01*
G01X79587Y166607D02*
X70529Y175665D01*
G01X89587Y156607D02*
X83773Y162422D01*
G01X101982Y144212D02*
X95183Y151011D01*
G01X109600Y136594D02*
X105183Y141011D01*
G01X150837Y95357D02*
X148700Y97494D01*
G01X158036Y88158D02*
X155362Y90832D01*
G01X165510Y80684D02*
X163636Y82558D01*
G01X175665Y70529D02*
X167204Y78990D01*
G01X80308Y168715D02*
X73357Y175665D01*
G01X90308Y158715D02*
X85880Y163142D01*
G01X101982Y147040D02*
X95880Y153142D01*
G01X109600Y139423D02*
X105183Y143840D01*
G01X127265Y121757D02*
X125016Y124007D01*
G01X144110Y104912D02*
X142385Y106638D01*
G01X152990Y96033D02*
X148700Y100322D01*
G01X161864Y87158D02*
X158190Y90832D01*
G01X175665Y73357D02*
X166437Y82586D01*
G01X81835Y170016D02*
X76186Y175665D01*
G01X91835Y160016D02*
X87181Y164670D01*
G01X101982Y149869D02*
X97181Y154670D01*
G01X109600Y142251D02*
X105183Y146668D01*
G01X120250Y131601D02*
X117200Y134651D01*
G01X128002Y123850D02*
X124995Y126856D01*
G01X130094Y121757D02*
X129948Y121903D01*
G01X155818Y96033D02*
X142198Y109653D01*
G01X163292Y88559D02*
X160854Y90997D01*
G01X175665Y76186D02*
X167205Y84646D01*
G01X84333Y170347D02*
X79014Y175665D01*
G01X89961Y164718D02*
X87512Y167168D01*
G01X94333Y160347D02*
X91884Y162796D01*
G01X99961Y154718D02*
X97512Y157168D01*
G01X101982Y152697D02*
X101884Y152796D01*
G01X109600Y145080D02*
X105183Y149496D01*
G01X123089Y131591D02*
X117200Y137479D01*
G01X128846Y125834D02*
X125016Y129664D01*
G01X158647Y96033D02*
X141810Y112869D01*
G01X166121Y88559D02*
X164247Y90432D01*
G01X175665Y79014D02*
X167205Y87475D01*
G01X89797Y167711D02*
X81842Y175665D01*
G01X99797Y157711D02*
X94876Y162632D01*
G01X109600Y147908D02*
X105183Y152325D01*
G01X113822Y143686D02*
X112800Y144708D01*
G01X127577Y129931D02*
X118065Y139443D01*
G01X162204Y95304D02*
X140918Y116590D01*
G01X175665Y81842D02*
X166844Y90664D01*
G01X90927Y169409D02*
X84671Y175665D01*
G01X100927Y159409D02*
X96575Y163762D01*
G01X110237Y150100D02*
X106574Y153762D01*
G01X115237Y145100D02*
X112800Y147536D01*
G01X123406Y136930D02*
X119480Y140857D01*
G01X127864Y132472D02*
X124408Y135928D01*
G01X163904Y96433D02*
X143200Y117137D01*
G01X168504Y91832D02*
X167205Y93132D01*
G01X175665Y84671D02*
X169904Y90432D01*
G01X92820Y170344D02*
X87499Y175665D01*
G01X102820Y160344D02*
X97510Y165655D01*
G01X111651Y151514D02*
X107510Y155655D01*
G01X116651Y146514D02*
X113914Y149251D01*
G01X123406Y139759D02*
X120894Y142271D01*
G01X130029Y133136D02*
X127237Y135928D01*
G01X168504Y94661D02*
X145038Y118127D01*
G01X175665Y87499D02*
X172711Y90454D01*
G01X99582Y166411D02*
X90328Y175665D01*
G01X109582Y156411D02*
X103576Y162417D01*
G01X118065Y147928D02*
X115147Y150846D01*
G01X124915Y141078D02*
X122308Y143685D01*
G01X134403Y131591D02*
X130065Y135928D01*
G01X144211Y121782D02*
X141520Y124473D01*
G01X166309Y99684D02*
X145582Y120411D01*
G01X175665Y90328D02*
X173505Y92489D01*
G01X100227Y168595D02*
X93156Y175665D01*
G01X110227Y158595D02*
X105760Y163062D01*
G01X119479Y149342D02*
X115760Y153062D01*
G01X127743Y141078D02*
X125022Y143800D01*
G01X137221Y131601D02*
X134642Y134180D01*
G01X167727Y101095D02*
X142099Y126722D01*
G01X175665Y93156D02*
X173505Y95317D01*
G01X101702Y169948D02*
X95985Y175665D01*
G01X111702Y159948D02*
X107113Y164537D01*
G01X120893Y150757D02*
X117113Y154537D01*
G01X130572Y141079D02*
X127850Y143800D01*
G01X133530Y138120D02*
X132497Y139153D01*
G01X139429Y132221D02*
X135533Y136117D01*
G01X175665Y95985D02*
X142321Y129329D01*
G01X104094Y170385D02*
X98813Y175665D01*
G01X110206Y164272D02*
X107550Y166928D01*
G01X114094Y160385D02*
X111438Y163041D01*
G01X120206Y154272D02*
X117550Y156928D01*
G01X121983Y152496D02*
X121438Y153041D01*
G01X124678Y149800D02*
X124571Y149908D01*
G01X157054Y117425D02*
X130679Y143800D01*
G01X175665Y98813D02*
X160346Y114132D01*
G01X109749Y167558D02*
X101642Y175665D01*
G01X119749Y157558D02*
X114724Y162583D01*
G01X127507Y149800D02*
X125183Y152124D01*
G01X157428Y119879D02*
X133507Y143800D01*
G01X175665Y101642D02*
X162800Y114506D01*
G01X110823Y169313D02*
X104470Y175665D01*
G01X120823Y159313D02*
X116478Y163657D01*
G01X130186Y149949D02*
X126478Y153657D01*
G01X133135Y147000D02*
X132449Y147686D01*
G01X149200Y130936D02*
X136336Y143800D01*
G01X158750Y121386D02*
X153814Y126321D01*
G01X175665Y104470D02*
X164307Y115828D01*
G01X112655Y170309D02*
X107298Y175665D01*
G01X122655Y160309D02*
X117474Y165490D01*
G01X131600Y151363D02*
X127474Y155490D01*
G01X135964Y147000D02*
X133863Y149100D01*
G01X149200Y133764D02*
X138892Y144072D01*
G01X160886Y122077D02*
X156643Y126321D01*
G01X175665Y107298D02*
X164999Y117965D01*
G01X119588Y166204D02*
X110127Y175665D01*
G01X129588Y156204D02*
X123370Y162423D01*
G01X138065Y147728D02*
X135127Y150665D01*
G01X149200Y136592D02*
X140328Y145465D01*
G01X156271Y129522D02*
X152400Y133392D01*
G01X175665Y110127D02*
X161792Y124000D01*
G01X120150Y168471D02*
X112955Y175665D01*
G01X130150Y158471D02*
X125636Y162984D01*
G01X139479Y149142D02*
X135636Y152984D01*
G01X149200Y139421D02*
X141742Y146879D01*
G01X158025Y130596D02*
X152400Y136220D01*
G01X175665Y112955D02*
X163674Y124946D01*
G01X121573Y169876D02*
X115784Y175665D01*
G01X131573Y159876D02*
X127042Y164408D01*
G01X140893Y150556D02*
X137042Y154408D01*
G01X149200Y142249D02*
X143156Y148293D01*
G01X157082Y134367D02*
X152400Y139049D01*
G01X159733Y131716D02*
X157604Y133846D01*
G01X175665Y115784D02*
X164794Y126655D01*
G01X123870Y170407D02*
X118612Y175665D01*
G01X133870Y160407D02*
X127573Y166705D01*
G01X141982Y152295D02*
X137573Y156705D01*
G01X149200Y145078D02*
X144570Y149707D01*
G01X157000Y137278D02*
X152400Y141877D01*
G01X162768Y131510D02*
X160514Y133764D01*
G01X175665Y118612D02*
X164588Y129689D01*
G01X129705Y167401D02*
X121440Y175665D01*
G01X139705Y157401D02*
X134566Y162540D01*
G01X149200Y147906D02*
X145183Y151923D01*
G01X157000Y140106D02*
X152400Y144706D01*
G01X175665Y121440D02*
X163342Y133764D01*
G01X130721Y169213D02*
X124269Y175665D01*
G01X140721Y159213D02*
X136378Y163556D01*
G01X158170Y141764D02*
X152400Y147534D01*
G01X175665Y124269D02*
X165000Y134934D01*
G01X132496Y170267D02*
X127097Y175665D01*
G01X142496Y160267D02*
X137432Y165330D01*
G01X160999Y141764D02*
X147432Y155330D01*
G01X175665Y127097D02*
X165000Y137762D01*
G01X135948Y169644D02*
X129926Y175665D01*
G01X139606Y165985D02*
X136809Y168782D01*
G01X145948Y159644D02*
X143151Y162440D01*
G01X163827Y141764D02*
X146809Y158782D01*
G01X175665Y129926D02*
X165000Y140591D01*
G01X140076Y168343D02*
X132754Y175665D01*
G01X175665Y132754D02*
X145508Y162911D01*
G01X141448Y169800D02*
X135583Y175665D01*
G01X175665Y135583D02*
X146966Y164282D01*
G01X143660Y170417D02*
X138411Y175665D01*
G01X175665Y138411D02*
X147582Y166494D01*
G01X175665Y141240D02*
X141240Y175665D01*
G01X175665Y144068D02*
X144068Y175665D01*
G01X175665Y146896D02*
X146896Y175665D01*
G01X175665Y149725D02*
X149725Y175665D01*
G01X169072Y159146D02*
X152553Y175665D01*
G01X175665Y152553D02*
X174894Y153324D01*
G01X168801Y162246D02*
X155382Y175665D01*
G01X169354Y164522D02*
X158210Y175665D01*
G01X170357Y166347D02*
X161038Y175665D01*
G01X171715Y167817D02*
X163867Y175665D01*
G01X173419Y168942D02*
X166695Y175665D01*
G01X175527Y169662D02*
X169528Y175661D01*
G01X7563Y73300D02*
X11204D01*
Y72467D01*
X10643D01*
G03X8073Y68939I-1510J-1600D01*
G03X7911Y65001I897J-2009D01*
G03X7298Y64592I897J-2009D01*
G01X6971D01*
X6200Y65363D01*
Y71937D01*
X7563Y73300D01*
G01X6200Y71575D02*
X7925Y73300D01*
G01X10229Y72775D02*
X10754Y73300D01*
G01X6200Y68746D02*
X7225Y69771D01*
G01X6200Y65918D02*
X6808Y66525D01*
G01X6770Y66890D02*
X6200Y67460D01*
G01X7737Y68752D02*
X6200Y70288D01*
G01X7274Y72043D02*
X6790Y72527D01*
G01X9079Y73067D02*
X8846Y73300D01*
G01X22090Y55488D02*
G03X25381Y55797I1510J1600D01*
G03X25377Y55709I996J-88D01*
G01Y54529D01*
G03X25458Y54135I1000J0D01*
G03X25377Y53741I919J-394D01*
G01Y52561D01*
G03X25458Y52167I1000J0D01*
G03X25377Y51772I919J-395D01*
G01Y50592D01*
G03X25458Y50197I1000J0D01*
G03X25388Y49946I919J-394D01*
G03X21803Y50813I-2075J-733D01*
G01X19505D01*
Y51065D01*
G03Y55237I700J2086D01*
G01Y55488D01*
X22090D01*
G01X20957Y55219D02*
X21226Y55488D01*
G01X22321Y53754D02*
X23459Y54892D01*
G01X19505Y50938D02*
X19602Y51035D01*
G01X22730Y51335D02*
X25418Y54023D01*
G01X24929Y50706D02*
X25377Y51154D01*
G01X20018Y50813D02*
X19852Y50979D01*
G01X22431Y51229D02*
X21905Y51755D01*
G01X25377Y51111D02*
X21001Y55488D01*
G01X25394Y53923D02*
X24311Y55006D01*
G01X19505Y63361D02*
X22390D01*
G03X25377Y63330I1510J1600D01*
G01Y62402D01*
G03X25458Y62008I1000J0D01*
G03X25377Y61614I919J-394D01*
G01Y60434D01*
G03X25458Y60040I1000J0D01*
G03X25377Y59645I919J-395D01*
G01Y58465D01*
G03X25381Y58380I1000J0D01*
G03X22090Y58688I-1781J-1292D01*
G01X19505D01*
Y58938D01*
G03Y63110I700J2086D01*
G01Y63361D01*
G01X20462Y63209D02*
X20614Y63361D01*
G01X22144Y62063D02*
X23024Y62943D01*
G01X21598Y58688D02*
X25377Y62468D01*
G01X24720Y58982D02*
X25377Y59639D01*
G01X20629Y58688D02*
X20476Y58841D01*
G01X22954Y59191D02*
X22150Y59996D01*
G01X25377Y59597D02*
X21613Y63361D01*
G01X25377Y62425D02*
X24834Y62969D01*
G01X29528Y72836D02*
X35169D01*
X35500Y73167D01*
X37700D01*
G01X69800Y56300D02*
X65243D01*
X49200Y72343D01*
Y75800D01*
G01X55300Y75600D02*
Y69640D01*
X57700Y67240D01*
X60300D01*
G01X58407Y83100D02*
X102993D01*
X104200Y81893D01*
Y72507D01*
X102893Y71200D01*
X97907D01*
X96700Y72407D01*
Y79407D01*
X95407Y80700D01*
X88793D01*
X87400Y79307D01*
Y73807D01*
X86893Y73300D01*
X79907D01*
X78407Y74800D01*
X65193D01*
X63200Y72807D01*
Y71107D01*
X62593Y70500D01*
X58507D01*
X57100Y71907D01*
Y74335D01*
G03X56900Y77110I-1800J1265D01*
G01Y81593D01*
X58407Y83100D01*
G01X56900Y79848D02*
X60152Y83100D01*
G01X56943Y77063D02*
X62980Y83100D01*
G01X57201Y74492D02*
X65809Y83100D01*
G01X57272Y71735D02*
X68637Y83100D01*
G01X58866Y70500D02*
X71466Y83100D01*
G01X65994Y74800D02*
X74294Y83100D01*
G01X61694Y70500D02*
X63200Y72006D01*
G01X68823Y74800D02*
X77122Y83100D01*
G01X71651Y74800D02*
X79951Y83100D01*
G01X74479Y74800D02*
X82779Y83100D01*
G01X77308Y74800D02*
X85608Y83100D01*
G01X79272Y73935D02*
X88436Y83100D01*
G01X88865Y80700D02*
X91265Y83100D01*
G01X81465Y73300D02*
X87400Y79235D01*
G01X91693Y80700D02*
X94093Y83100D01*
G01X84293Y73300D02*
X87400Y76407D01*
G01X94522Y80700D02*
X96922Y83100D01*
G01X96379Y79729D02*
X99750Y83100D01*
G01X96700Y77222D02*
X102578Y83100D01*
G01X96700Y74393D02*
X104200Y81893D01*
G01X97121Y71986D02*
X104200Y79065D01*
G01X99164Y71200D02*
X104200Y76236D01*
G01X101992Y71200D02*
X104200Y73408D01*
G01X59729Y70500D02*
X57100Y73128D01*
G01X62557Y70500D02*
X57500Y75557D01*
G01X63200Y72686D02*
X56900Y78986D01*
G01X64553Y74161D02*
X57011Y81703D01*
G01X66742Y74800D02*
X58442Y83100D01*
G01X69571Y74800D02*
X61271Y83100D01*
G01X72399Y74800D02*
X64099Y83100D01*
G01X75228Y74800D02*
X66928Y83100D01*
G01X78056Y74800D02*
X69756Y83100D01*
G01X82384Y73300D02*
X72585Y83100D01*
G01X85213Y73300D02*
X75413Y83100D01*
G01X87400Y73941D02*
X78241Y83100D01*
G01X87400Y76770D02*
X81070Y83100D01*
G01X87546Y79453D02*
X83898Y83100D01*
G01X89127Y80700D02*
X86727Y83100D01*
G01X98627Y71200D02*
X96700Y73127D01*
G01X91955Y80700D02*
X89555Y83100D01*
G01X101455Y71200D02*
X96700Y75955D01*
G01X94784Y80700D02*
X92384Y83100D01*
G01X103588Y71895D02*
X96700Y78784D01*
G01X104200Y74112D02*
X95212Y83100D01*
G01X104200Y76940D02*
X98040Y83100D01*
G01X104200Y79769D02*
X100869Y83100D01*
G01X89307Y79000D02*
X94493D01*
X95000Y78493D01*
Y67907D01*
X94293Y67200D01*
X79193D01*
X77300Y65307D01*
Y51593D01*
X78293Y50600D01*
X95807D01*
X97607Y52400D01*
X103193D01*
X103247Y52346D01*
X103168Y52267D01*
G03X102700Y51136I1131J-1131D01*
G01Y43100D01*
X76807D01*
X69100Y50807D01*
Y62207D01*
X64500Y66807D01*
Y70286D01*
X64700Y70486D01*
Y72186D01*
X65814Y73300D01*
X77786D01*
X79286Y71800D01*
X79393D01*
X79693Y71500D01*
X87107D01*
X87407Y71800D01*
X87514D01*
X88900Y73186D01*
Y73293D01*
X89000Y73393D01*
Y78693D01*
X89307Y79000D01*
G01X64700Y70678D02*
X67322Y73300D01*
G01X64500Y67649D02*
X70151Y73300D01*
G01X65493Y65814D02*
X72979Y73300D01*
G01X66908Y64400D02*
X75808Y73300D01*
G01X68322Y62985D02*
X78211Y72875D01*
G01X69100Y60935D02*
X79679Y71514D01*
G01X89000Y78007D02*
X89993Y79000D01*
G01X69100Y58107D02*
X82493Y71500D01*
G01X89000Y75178D02*
X92822Y79000D01*
G01X81022Y67200D02*
X85322Y71500D01*
G01X69100Y55278D02*
X77300Y63478D01*
G01X83850Y67200D02*
X95000Y78350D01*
G01X69100Y52450D02*
X77300Y60650D01*
G01X86678Y67200D02*
X95000Y75522D01*
G01X69693Y50214D02*
X77300Y57822D01*
G01X89507Y67200D02*
X95000Y72693D01*
G01X71107Y48800D02*
X77300Y54993D01*
G01X92335Y67200D02*
X95000Y69865D01*
G01X72521Y47386D02*
X77300Y52165D01*
G01X73935Y45972D02*
X78564Y50600D01*
G01X75350Y44558D02*
X81392Y50600D01*
G01X76764Y43143D02*
X84221Y50600D01*
G01X79549Y43100D02*
X87049Y50600D01*
G01X82377Y43100D02*
X89877Y50600D01*
G01X85206Y43100D02*
X92706Y50600D01*
G01X88034Y43100D02*
X95534Y50600D01*
G01X90863Y43100D02*
X100163Y52400D01*
G01X93691Y43100D02*
X102991Y52400D01*
G01X96520Y43100D02*
X102700Y49280D01*
G01X99348Y43100D02*
X102700Y46452D01*
G01X102176Y43100D02*
X102700Y43623D01*
G01X78643Y43100D02*
X69100Y52643D01*
G01X81472Y43100D02*
X69100Y55472D01*
G01X84300Y43100D02*
X69100Y58300D01*
G01X77300Y52929D02*
X69100Y61129D01*
G01X87129Y43100D02*
X79629Y50600D01*
G01X77300Y55757D02*
X64500Y68557D01*
G01X89957Y43100D02*
X82457Y50600D01*
G01X77300Y58586D02*
X64700Y71185D01*
G01X92786Y43100D02*
X85286Y50600D01*
G01X77300Y61414D02*
X65614Y73100D01*
G01X95614Y43100D02*
X88114Y50600D01*
G01X77300Y64242D02*
X68243Y73300D01*
G01X98442Y43100D02*
X90942Y50600D01*
G01X78182Y66189D02*
X71071Y73300D01*
G01X101271Y43100D02*
X93771Y50600D01*
G01X79999Y67200D02*
X73900Y73300D01*
G01X102700Y44500D02*
X96203Y50996D01*
G01X82828Y67200D02*
X76728Y73300D01*
G01X102700Y47328D02*
X97628Y52400D01*
G01X85656Y67200D02*
X81356Y71500D01*
G01X102700Y50156D02*
X100456Y52400D01*
G01X88484Y67200D02*
X84184Y71500D01*
G01X91313Y67200D02*
X87013Y71500D01*
G01X94141Y67200D02*
X88528Y72813D01*
G01X95000Y69170D02*
X89000Y75170D01*
G01X95000Y71998D02*
X89000Y77998D01*
G01X95000Y74827D02*
X90827Y79000D01*
G01X95000Y77655D02*
X93655Y79000D01*
G01X103514Y69700D02*
X105556Y71741D01*
G03X105990Y71700I434J2259D01*
G01X110700D01*
Y71045D01*
G03X111700Y70045I1000J0D01*
G01X117641D01*
X118554Y69131D01*
G03X115932Y68743I-1054J-1931D01*
G03X113480Y65096I-1324J-1757D01*
G01Y61302D01*
G03X113530Y60905I1600J0D01*
G01Y58662D01*
G03X113620Y58140I1550J0D01*
G01X112740D01*
Y61302D01*
G03X112690Y61699I-1600J0D01*
G01Y63942D01*
G03X110155Y65139I-1550J0D01*
G03X107620Y63942I-985J-1197D01*
G01Y61699D01*
G03X107570Y61302I1550J-397D01*
G01Y56050D01*
G03X107814Y55200I1600J0D01*
G01X106764D01*
G03X105633Y54732I0J-1600D01*
G01X104308Y53407D01*
X103814Y53900D01*
X96986D01*
X95186Y52100D01*
X78914D01*
X78800Y52214D01*
Y64686D01*
X79814Y65700D01*
X94914D01*
X96500Y67286D01*
Y70485D01*
X97286Y69700D01*
X103514D01*
G01X78800Y62150D02*
X82350Y65700D01*
G01X78800Y59322D02*
X85178Y65700D01*
G01X78800Y56493D02*
X88007Y65700D01*
G01X78800Y53665D02*
X90835Y65700D01*
G01X96500Y68537D02*
X97664Y69700D01*
G01X80064Y52100D02*
X93664Y65700D01*
G01X82892Y52100D02*
X100492Y69700D01*
G01X85721Y52100D02*
X103320Y69700D01*
G01X88549Y52100D02*
X108149Y71700D01*
G01X91378Y52100D02*
X110700Y71422D01*
G01X94206Y52100D02*
X112151Y70045D01*
G01X114047Y69113D02*
X114979Y70045D01*
G01X110109Y65175D02*
X112480Y67546D01*
G01X98834Y53900D02*
X107620Y62686D01*
G01X117132Y69369D02*
X117724Y69961D01*
G01X112482Y64719D02*
X113124Y65361D01*
G01X101663Y53900D02*
X107570Y59807D01*
G01X112690Y62099D02*
X113480Y62889D01*
G01X104153Y53562D02*
X107570Y56979D01*
G01X112740Y59321D02*
X113530Y60111D01*
G01X80957Y52100D02*
X78800Y54257D01*
G01X83785Y52100D02*
X78800Y57085D01*
G01X86614Y52100D02*
X78800Y59914D01*
G01X89442Y52100D02*
X78800Y62742D01*
G01X92271Y52100D02*
X79243Y65128D01*
G01X95099Y52100D02*
X81500Y65700D01*
G01X96557Y53471D02*
X84328Y65700D01*
G01X98956Y53900D02*
X87156Y65700D01*
G01X101784Y53900D02*
X89985Y65700D01*
G01X104707Y53806D02*
X92813Y65700D01*
G01X106232Y55109D02*
X95278Y66063D01*
G01X107570Y56600D02*
X96500Y67670D01*
G01X107570Y59428D02*
X97298Y69700D01*
G01X107620Y62207D02*
X100127Y69700D01*
G01X107870Y64786D02*
X102955Y69700D01*
G01X113530Y59125D02*
X112740Y59915D01*
G01X110263Y65220D02*
X104649Y70834D01*
G01X113480Y62003D02*
X112690Y62793D01*
G01X113480Y64832D02*
X106612Y71700D01*
G01X112842Y68298D02*
X109441Y71700D01*
G01X114790Y69178D02*
X113924Y70045D01*
G01X117399Y69398D02*
X116752Y70045D01*
G01X102450Y88800D02*
X84500D01*
X73850Y99450D01*
Y124950D01*
G01X81300Y115614D02*
Y126437D01*
X86600Y121137D01*
Y116626D01*
G03X81300Y115614I-2245J-2626D01*
G01X81300Y124047D02*
X82495Y125242D01*
G01X81300Y121219D02*
X83909Y123828D01*
G01X81300Y118390D02*
X85323Y122414D01*
G01X82847Y117109D02*
X86600Y120862D01*
G01X85734Y117168D02*
X86600Y118033D01*
G01X81793Y116318D02*
X81300Y116811D01*
G01X83574Y117366D02*
X81300Y119639D01*
G01X86600Y117168D02*
X81300Y122468D01*
G01X86600Y119996D02*
X81300Y125296D01*
G01Y110063D02*
Y112386D01*
G03X86600Y111374I3055J1615D01*
G01Y109800D01*
G03X87068Y108668I1600J0D01*
G01X91437Y104300D01*
X87063D01*
X81300Y110063D01*
G01X81379Y109984D02*
X82488Y111093D01*
G01X82793Y108570D02*
X84797Y110573D01*
G01X84208Y107156D02*
X86617Y109565D01*
G01X85622Y105741D02*
X87809Y107928D01*
G01X87036Y104327D02*
X89223Y106514D01*
G01X89838Y104300D02*
X90637Y105100D01*
G01X88154Y104300D02*
X81300Y111154D01*
G01X90982Y104300D02*
X84718Y110564D01*
G01X76463Y135800D02*
X89957D01*
X105247Y120510D01*
X101310D01*
G03X100783Y121783I-1800J0D01*
G01X92893Y129673D01*
G03X91620Y130200I-1273J-1273D01*
G01X86865D01*
G03X83441Y128822I-1265J-1800D01*
G01X76463Y135800D01*
G01X77687Y134576D02*
X78911Y135800D01*
G01X79101Y133162D02*
X81739Y135800D01*
G01X80515Y131748D02*
X84568Y135800D01*
G01X81930Y130334D02*
X87396Y135800D01*
G01X84916Y130491D02*
X90091Y135666D01*
G01X83344Y128919D02*
X83509Y129084D01*
G01X87453Y130200D02*
X91505Y134252D01*
G01X90282Y130200D02*
X92919Y132838D01*
G01X92728Y129818D02*
X94333Y131424D01*
G01X94152Y128414D02*
X95748Y130009D01*
G01X95566Y127000D02*
X97162Y128595D01*
G01X96980Y125585D02*
X98576Y127181D01*
G01X98395Y124171D02*
X99990Y125767D01*
G01X99809Y122757D02*
X101405Y124353D01*
G01X101145Y121264D02*
X102819Y122938D01*
G01X103219Y120510D02*
X104233Y121524D01*
G01X84682Y130400D02*
X79282Y135800D01*
G01X87710Y130200D02*
X82110Y135800D01*
G01X90538Y130200D02*
X84939Y135800D01*
G01X103057Y120510D02*
X87767Y135800D01*
G01X111140Y44682D02*
Y48872D01*
X110112Y49900D01*
X109300D01*
G01X146900Y87840D02*
X139260D01*
X138300Y88800D01*
X109950D01*
G01D02*
Y84550D01*
G01X106200Y96800D02*
X119200D01*
X122992Y100592D01*
X125992D01*
X126900Y101500D01*
Y105146D01*
X130100Y108346D01*
G01X113741Y104778D02*
X114539D01*
X113622Y103861D01*
G03X116167Y101315I379J-2167D01*
G01X117461Y102609D01*
X118173D01*
G03X117690Y98600I627J-2109D01*
G01X109000D01*
Y99300D01*
G03X108793Y99910I-1000J0D01*
G03X109132Y100168I-793J1390D01*
G01X113741Y104778D01*
G01X109593Y98600D02*
X111933Y100940D01*
G01X112422Y98600D02*
X113398Y99577D01*
G01X115250Y98600D02*
X116656Y100006D01*
G01X110824Y98600D02*
X109194Y100231D01*
G01X113653Y98600D02*
X110608Y101645D01*
G01X112169Y102913D02*
X112022Y103059D01*
G01X116481Y98600D02*
X115219Y99862D01*
G01X113835Y104075D02*
X113436Y104473D01*
G01X116713Y101197D02*
X116381Y101529D01*
G01X118140Y102599D02*
X118130Y102609D01*
G01X107890Y108490D02*
Y117867D01*
X113842Y111916D01*
X112715D01*
G03X111584Y111447I0J-1600D01*
G01X105837Y105700D01*
X94563D01*
X92773Y107490D01*
X106890D01*
G03X107890Y108490I0J1000D01*
G01X92900Y107363D02*
X93027Y107490D01*
G01X94314Y105949D02*
X95856Y107490D01*
G01X107890Y116696D02*
X108476Y117282D01*
G01X96894Y105700D02*
X98684Y107490D01*
G01X107890Y113867D02*
X109890Y115867D01*
G01X99723Y105700D02*
X101512Y107490D01*
G01X107890Y111039D02*
X111304Y114453D01*
G01X102551Y105700D02*
X104341Y107490D01*
G01X107831Y108152D02*
X112718Y113039D01*
G01X105380Y105700D02*
X107228Y107549D01*
G01X95239Y105700D02*
X93450Y107490D01*
G01X98068Y105700D02*
X96278Y107490D01*
G01X100896Y105700D02*
X99106Y107490D01*
G01X103724Y105700D02*
X101935Y107490D01*
G01X106195Y106058D02*
X104763Y107490D01*
G01X107609Y107472D02*
X107432Y107650D01*
G01X109023Y108886D02*
X107890Y110020D01*
G01X110438Y110301D02*
X107890Y112848D01*
G01X111884Y111683D02*
X107890Y115677D01*
G01X86865Y126600D02*
X90874D01*
X96964Y120510D01*
X92130D01*
G03X91130Y119510I0J-1000D01*
G01Y109133D01*
X89800Y110463D01*
Y121800D01*
G03X89332Y122932I-1600J0D01*
G01X86022Y126241D01*
G03X86865Y126600I-422J2159D01*
G01X86172Y126091D02*
X86453Y126372D01*
G01X87586Y124677D02*
X89510Y126600D01*
G01X89001Y123262D02*
X91606Y125868D01*
G01X89800Y121234D02*
X93020Y124454D01*
G01X91871Y120476D02*
X94435Y123039D01*
G01X89800Y118405D02*
X91164Y119769D01*
G01X94734Y120510D02*
X95849Y121625D01*
G01X89800Y115577D02*
X91130Y116906D01*
G01X89800Y112748D02*
X91130Y114078D01*
G01X90072Y110191D02*
X91130Y111249D01*
G01Y109810D02*
X89800Y111139D01*
G01X91130Y112638D02*
X89800Y113968D01*
G01X91130Y115466D02*
X89800Y116796D01*
G01X91130Y118295D02*
X89800Y119624D01*
G01X91799Y120454D02*
X89432Y122821D01*
G01X94571Y120510D02*
X88482Y126600D01*
G01X85600Y128400D02*
X91620D01*
X99510Y120510D01*
Y114000D01*
G01X127100Y48260D02*
Y48858D01*
G03X127700Y47390I2200J42D01*
G01Y46963D01*
X126970Y46233D01*
G03X126100Y46740I-870J-493D01*
G01X122900D01*
G03X121900Y45740I0J-1000D01*
G01Y42740D01*
G03X122784Y41747I1000J0D01*
G01X122637Y41600D01*
X118536D01*
G03X118601Y42042I-1486J442D01*
G01Y43082D01*
X119400D01*
G03X120532Y43551I0J1600D01*
G01X121132Y44151D01*
G03X121600Y45282I-1131J1131D01*
G01Y46490D01*
G03X122161Y47586I-1600J1510D01*
G03X122900Y47260I739J674D01*
G01X126100D01*
G03X127100Y48260I0J1000D01*
G01X122780Y46733D02*
X123307Y47260D01*
G01X121600Y45553D02*
X121907Y45860D01*
G01X118601Y42554D02*
X119129Y43082D01*
G01X127100Y48224D02*
X127181Y48306D01*
G01X125616Y46740D02*
X126136Y47260D01*
G01X120476Y41600D02*
X121900Y43024D01*
G01X119741Y41600D02*
X118601Y42741D01*
G01X122570Y41600D02*
X120575Y43594D01*
G01X121900Y45098D02*
X121600Y45398D01*
G01X123086Y46740D02*
X122470Y47357D01*
G01X125915Y46740D02*
X125396Y47260D01*
G01X127183Y48300D02*
X127100Y48383D01*
G01X115863Y53400D02*
X118497D01*
X121900Y49997D01*
Y49110D01*
G03X117891Y48625I-1900J-1110D01*
G03X116681Y48828I-840J-1303D01*
G01Y51920D01*
G03X116212Y53051I-1600J0D01*
G01X115863Y53400D01*
G01X116680Y51947D02*
X118133Y53400D01*
G01X116681Y49119D02*
X119729Y52168D01*
G01X120526Y50136D02*
X121143Y50753D01*
G01X118026Y48972D02*
X116681Y50318D01*
G01X119654Y50173D02*
X116427Y53400D01*
G01X119907Y78100D02*
X137193D01*
X147000Y68293D01*
Y62593D01*
X148093Y61500D01*
X148307D01*
G03X148700Y61420I393J920D01*
G01X153820D01*
G03X154213Y61500I0J1000D01*
G01X154503D01*
G03X158004I1750J915D01*
G01X164193D01*
X167200Y58493D01*
Y41807D01*
X166193Y40800D01*
X157810D01*
G03X154696I-1557J-1215D01*
G01X148607D01*
X148400Y41007D01*
Y42393D01*
X148540Y42532D01*
G03X148700Y42520I160J987D01*
G01X153820D01*
G03X154213Y42600I0J1000D01*
G01X157807D01*
X158600Y43393D01*
Y56907D01*
X156207Y59300D01*
X154393D01*
G03X153820Y59480I-573J-820D01*
G01X151439D01*
G03X151260Y59490I-179J-1590D01*
G01X148562D01*
X147921Y60132D01*
G03X147672Y60335I-1132J-1131D01*
G01X147607Y60400D01*
X147565D01*
G03X146790Y60600I-775J-1400D01*
G01X145407D01*
X145200Y60807D01*
Y63507D01*
X138407Y70300D01*
X119507D01*
X119000Y70807D01*
Y77193D01*
X119907Y78100D01*
G01X119000Y76894D02*
X120206Y78100D01*
G01X119000Y74066D02*
X123034Y78100D01*
G01X119000Y71237D02*
X125863Y78100D01*
G01X120891Y70300D02*
X128691Y78100D01*
G01X123720Y70300D02*
X131520Y78100D01*
G01X126548Y70300D02*
X134348Y78100D01*
G01X129376Y70300D02*
X137176Y78100D01*
G01X132205Y70300D02*
X138599Y76694D01*
G01X135033Y70300D02*
X140013Y75280D01*
G01X137862Y70300D02*
X141427Y73866D01*
G01X139549Y69158D02*
X142842Y72451D01*
G01X140963Y67744D02*
X144256Y71037D01*
G01X142377Y66330D02*
X145670Y69623D01*
G01X143791Y64916D02*
X147000Y68125D01*
G01X145200Y63496D02*
X147000Y65296D01*
G01X145270Y60738D02*
X147062Y62530D01*
G01X147686Y60326D02*
X148780Y61420D01*
G01X149680Y59490D02*
X151609Y61420D01*
G01X152498Y59480D02*
X154508Y61490D01*
G01X155146Y59300D02*
X156286Y60440D01*
G01X157091Y58416D02*
X160174Y61500D01*
G01X158505Y57002D02*
X163003Y61500D01*
G01X158600Y54269D02*
X165012Y60681D01*
G01X158600Y51440D02*
X166426Y59267D01*
G01X148400Y41240D02*
X149679Y42520D01*
G01X158600Y48612D02*
X167200Y57212D01*
G01X150788Y40800D02*
X152508Y42520D01*
G01X158600Y45784D02*
X167200Y54384D01*
G01X153616Y40800D02*
X155416Y42600D01*
G01X157041Y41396D02*
X167200Y51555D01*
G01X159273Y40800D02*
X167200Y48727D01*
G01X162102Y40800D02*
X167200Y45898D01*
G01X164930Y40800D02*
X167200Y43070D01*
G01X148826Y40800D02*
X148400Y41226D01*
G01X122154Y70300D02*
X119000Y73454D01*
G01X151654Y40800D02*
X149935Y42520D01*
G01X124982Y70300D02*
X119000Y76283D01*
G01X154482Y40800D02*
X152763Y42520D01*
G01X127811Y70300D02*
X120011Y78100D01*
G01X156578Y41533D02*
X155511Y42600D01*
G01X130639Y70300D02*
X122839Y78100D01*
G01X160139Y40800D02*
X158073Y42866D01*
G01X133468Y70300D02*
X125668Y78100D01*
G01X162968Y40800D02*
X158600Y45168D01*
G01X136296Y70300D02*
X128496Y78100D01*
G01X145996Y60600D02*
X145200Y61396D01*
G01X165796Y40800D02*
X158600Y47996D01*
G01X149934Y59490D02*
X131325Y78100D01*
G01X167200Y42225D02*
X158600Y50825D01*
G01X147000Y65253D02*
X134153Y78100D01*
G01X152773Y59480D02*
X150834Y61420D01*
G01X167200Y45053D02*
X158600Y53653D01*
G01X147000Y68082D02*
X136982Y78100D01*
G01X155782Y59300D02*
X153662Y61420D01*
G01X167200Y47882D02*
X158600Y56482D01*
G01X167200Y50710D02*
X157218Y60692D01*
G01X167200Y53538D02*
X159238Y61500D01*
G01X167200Y56367D02*
X162067Y61500D01*
G01X127510Y110684D02*
X130888D01*
Y110400D01*
G03X127933Y108725I-788J-2054D01*
G01X126714Y107506D01*
G03X126247Y108556I-1598J-82D01*
G01X125325Y109478D01*
G03X125016Y109719I-1132J-1131D01*
G01Y110316D01*
G03X127510Y110684I984J1968D01*
G01X125726Y109076D02*
X126949Y110300D01*
G01X130023Y110545D02*
X130162Y110684D01*
G01X127044Y107836D02*
X125016Y109865D01*
G01X128220Y109489D02*
X127241Y110468D01*
G01X129994Y110544D02*
X129853Y110684D01*
G01X127226Y118557D02*
X130888D01*
Y118307D01*
G03Y114135I-700J-2086D01*
G01Y113885D01*
X127510D01*
G03X125016Y114252I-1510J-1600D01*
G01Y114843D01*
G03X124935Y115237I-1000J0D01*
G03X125016Y115631I-919J394D01*
G01Y116811D01*
G03X124935Y117206I-1000J0D01*
G03X125016Y117600I-919J395D01*
G01Y118071D01*
G03X127226Y118557I700J2086D01*
G01X125015Y116851D02*
X126169Y118004D01*
G01X129159Y118166D02*
X129550Y118557D01*
G01X125392Y114399D02*
X128244Y117251D01*
G01X127706Y113885D02*
X128562Y114740D01*
G01X130534Y113885D02*
X130742Y114092D01*
G01X126054Y114484D02*
X125010Y115527D01*
G01X128344Y115022D02*
X125384Y117982D01*
G01X129481Y113885D02*
X128989Y114377D01*
G01X128529Y117666D02*
X127637Y118557D01*
G01X130650Y118372D02*
X130466Y118557D01*
G01X120866Y104409D02*
X116716D01*
X114000Y101693D01*
G01X146900Y93360D02*
Y100600D01*
X144388Y103112D01*
X138896D01*
X137598Y104409D01*
X135038D01*
G01X166583Y16748D02*
G03X167100Y16892I0J1000D01*
G01Y12654D01*
G03X162895Y14689I-3517J-1906D01*
G01X160836Y16748D01*
X166583D01*
G01X162171Y15413D02*
X163505Y16748D01*
G01X164274Y14688D02*
X166334Y16748D01*
G01X166193Y13779D02*
X167100Y14685D01*
G01X163564Y14748D02*
X161564Y16748D01*
G01X167100Y14041D02*
X164393Y16748D01*
G01X167100Y16869D02*
X167086Y16883D01*
G01X156252Y48889D02*
X157100Y49737D01*
Y44100D01*
X154820D01*
Y44700D01*
G03X154739Y45095I-1000J0D01*
G03X154820Y45490I-919J395D01*
G01Y46670D01*
G03X154739Y47065I-1000J0D01*
G03X154820Y47460I-919J395D01*
G01Y48420D01*
X155120D01*
G03X156252Y48889I0J1600D01*
G01X154820Y47660D02*
X155681Y48522D01*
G01X154812Y44824D02*
X157100Y47112D01*
G01X156917Y44100D02*
X157100Y44283D01*
G01X156839Y44100D02*
X154820Y46119D01*
G01X157100Y46668D02*
X155334Y48434D01*
G01X157100Y49496D02*
X156980Y49617D01*
G01X153284Y85558D02*
X149282D01*
X147000Y87840D01*
X146900D01*
G01X153284Y85558D02*
Y93432D01*
G54D24*
X109950Y88800D03*
X102450D03*
G54D15*
X13583Y156417D03*
X163583Y20748D03*
X161000Y137764D03*
G54D34*
G01X68356Y68830D02*
X69407Y69881D01*
X72272D01*
G01X72598Y56102D02*
X73972D01*
G01X82812Y75781D02*
X81037D01*
G01X91500Y73200D02*
Y75340D01*
G01X114260Y74000D02*
X105990D01*
X104060Y75930D01*
G01D02*
X100200D01*
G01X163583Y10748D02*
X158400Y15931D01*
Y26052D01*
X156400Y28052D01*
X150248D01*
X144200Y34100D01*
Y40300D01*
G54D25*
X99510Y114000D03*
G54D16*
X60300Y67240D03*
Y72760D03*
X100200Y55660D03*
Y50140D03*
X124500Y44240D03*
Y62060D03*
Y56540D03*
Y49760D03*
X146900Y93360D03*
Y87840D03*
G54D26*
X136240Y49000D03*
Y59000D03*
X141760Y49000D03*
Y59000D03*
X153284Y85558D03*
X158803D03*
X153284Y93432D03*
X158803D03*
X153284Y77684D03*
X158803D03*
G36*
G01X68252Y73621D02*
X68072Y73601D01*
X67902Y73581D01*
X67732Y73561D01*
X67562Y73521D01*
X67392Y73471D01*
X67222Y73421D01*
X67052Y73361D01*
X66892Y73291D01*
X66732Y73221D01*
X66582Y73131D01*
X66432Y73041D01*
X66282Y72951D01*
X66142Y72841D01*
X66012Y72731D01*
X65872Y72621D01*
X65752Y72491D01*
X65632Y72361D01*
X65522Y72231D01*
X65412Y72091D01*
X65312Y71951D01*
X65222Y71801D01*
X65132Y71651D01*
X65052Y71491D01*
X64981Y71331D01*
X64912Y71171D01*
X64862Y71001D01*
X64812Y70831D01*
X64772Y70661D01*
X64732Y70491D01*
X64712Y70321D01*
X64692Y70141D01*
Y69971D01*
Y69791D01*
Y69621D01*
X64712Y69441D01*
X64732Y69271D01*
X64772Y69101D01*
X64812Y68931D01*
X64862Y68761D01*
X64912Y68591D01*
X64981Y68431D01*
X65052Y68271D01*
X65132Y68111D01*
X65222Y67961D01*
X65312Y67811D01*
X65412Y67671D01*
X65522Y67531D01*
X65632Y67401D01*
X65752Y67271D01*
X65872Y67141D01*
X66012Y67031D01*
X66142Y66921D01*
X66282Y66811D01*
X66432Y66721D01*
X66582Y66631D01*
X66732Y66541D01*
X66892Y66471D01*
X67052Y66401D01*
X67222Y66341D01*
X67392Y66291D01*
X67562Y66241D01*
X67732Y66201D01*
X67902Y66181D01*
X68072Y66161D01*
X68252Y66141D01*
X68432D01*
X75732D01*
X75902D01*
X76072Y66161D01*
X76252Y66181D01*
X76422Y66201D01*
X76592Y66241D01*
X76762Y66291D01*
X76932Y66341D01*
X77092Y66401D01*
X77262Y66471D01*
X77412Y66541D01*
X77572Y66631D01*
X77722Y66721D01*
X77872Y66811D01*
X78012Y66921D01*
X78142Y67031D01*
X78272Y67141D01*
X78402Y67271D01*
X78522Y67401D01*
X78632Y67531D01*
X78742Y67671D01*
X78842Y67811D01*
X78932Y67961D01*
X79022Y68111D01*
X79102Y68271D01*
X79172Y68581D01*
X85852D01*
Y71181D01*
X79172D01*
X79102Y71491D01*
X79022Y71651D01*
X78932Y71801D01*
X78842Y71951D01*
X78742Y72091D01*
X78632Y72231D01*
X78522Y72361D01*
X78402Y72491D01*
X78272Y72621D01*
X78142Y72731D01*
X78012Y72841D01*
X77872Y72951D01*
X77722Y73041D01*
X77572Y73131D01*
X77412Y73221D01*
X77262Y73291D01*
X77092Y73361D01*
X76932Y73421D01*
X76762Y73471D01*
X76592Y73521D01*
X76422Y73561D01*
X76252Y73581D01*
X76072Y73601D01*
X75902Y73621D01*
X75732D01*
X68432D01*
X68252D01*
G37*
G54D27*
X114260Y74000D03*
X121740D03*
G54D18*
X82812Y63971D03*
Y75781D03*
G54D28*
X154280Y33970D03*
Y68030D03*
G54D19*
X80972Y56102D03*
X73972D03*
G54D29*
X151260Y42140D03*
Y38990D03*
Y40960D03*
Y37810D03*
Y44110D03*
Y48050D03*
Y53950D03*
Y57890D03*
Y59860D03*
Y63010D03*
Y61040D03*
Y55920D03*
Y51980D03*
Y50020D03*
Y46080D03*
Y64190D03*
M02*
