G04 ================== begin FILE IDENTIFICATION RECORD ==================*
G04 Layout Name:  D:/Projects/Ember/01.Hardware/02.Base/02.PCB/EmberBase.brd*
G04 Film Name:    SILKTOP*
G04 File Format:  Gerber RS274X*
G04 File Origin:  Cadence Allegro 17.4-S037*
G04 Origin Date:  Sat Nov 23 18:30:32 2024*
G04 *
G04 Layer:  BOARD GEOMETRY/SILKSCREEN_TOP*
G04 Layer:  PACKAGE GEOMETRY/SILKSCREEN_TOP*
G04 Layer:  REF DES/SILKSCREEN_TOP*
G04 Layer:  MANUFACTURING/PEN3*
G04 Layer:  MANUFACTURING/PROBE_BOTTOM*
G04 *
G04 Offset:    (0.000 0.000)*
G04 Mirror:    No*
G04 Mode:      Positive*
G04 Rotation:  0*
G04 FullContactRelief:  No*
G04 UndefLineWidth:     6.000*
G04 ================== end FILE IDENTIFICATION RECORD ====================*
%FSLAX35Y35*MOIN*%
%IR0*IPPOS*OFA0.00000B0.00000*MIA0B0*SFA1.00000B1.00000*%
%ADD10C,.005*%
%ADD11C,.006*%
%ADD12C,.003902*%
%ADD13C,.007902*%
%ADD14C,.01*%
%ADD15C,.011799*%
G75*
%LPD*%
G75*
G36*
G01X114433Y86520D02*
X114933D01*
Y86454D01*
X114917D01*
Y86342D01*
X114901D01*
Y86229D01*
X114885D01*
Y86148D01*
X114384D01*
Y86166D01*
X114400D01*
Y86279D01*
X114417D01*
Y86391D01*
X114433D01*
Y86520D01*
G37*
G36*
G01X126958Y87051D02*
X128055D01*
Y86953D01*
X128039D01*
Y86857D01*
X128023D01*
Y86760D01*
X128007D01*
Y86728D01*
X126910D01*
Y86778D01*
X126926D01*
Y86890D01*
X126942D01*
Y86987D01*
X126958D01*
Y87051D01*
G37*
G36*
G01X117669Y87969D02*
X118395D01*
Y87935D01*
X118379D01*
Y87823D01*
X118363D01*
Y87694D01*
X118347D01*
Y87581D01*
X118330D01*
Y87469D01*
X118314D01*
Y87356D01*
X118298D01*
Y87243D01*
X118282D01*
Y87130D01*
X118266D01*
Y87018D01*
X118250D01*
Y86905D01*
X118234D01*
Y86810D01*
X118475D01*
Y86760D01*
X118459D01*
Y86647D01*
X118443D01*
Y86535D01*
X118427D01*
Y86503D01*
X118186D01*
Y86438D01*
X118169D01*
Y86325D01*
X118153D01*
Y86213D01*
X118137D01*
Y86148D01*
X117524D01*
Y86214D01*
X117540D01*
Y86327D01*
X117556D01*
Y86440D01*
X117572D01*
Y86503D01*
X116477D01*
Y86585D01*
X116493D01*
Y86697D01*
X116510D01*
Y86810D01*
X116526D01*
Y86874D01*
X116542D01*
Y86923D01*
X116558D01*
Y86971D01*
X116574D01*
Y87035D01*
X116590D01*
Y87084D01*
X116606D01*
Y87132D01*
X116622D01*
Y87196D01*
X116638D01*
Y87245D01*
X116654D01*
Y87293D01*
X116671D01*
Y87357D01*
X116687D01*
Y87406D01*
X116703D01*
Y87454D01*
X116719D01*
Y87518D01*
X116735D01*
Y87567D01*
X116751D01*
Y87615D01*
X116767D01*
Y87679D01*
X116783D01*
Y87728D01*
X116799D01*
Y87776D01*
X116815D01*
Y87840D01*
X116832D01*
Y87889D01*
X116848D01*
Y87903D01*
X116832D01*
Y87919D01*
X116815D01*
Y87935D01*
X116799D01*
Y87952D01*
X116783D01*
Y87969D01*
X117477D01*
Y87952D01*
X117461D01*
Y87887D01*
X117445D01*
Y87839D01*
X117429D01*
Y87791D01*
X117413D01*
Y87726D01*
X117397D01*
Y87678D01*
X117381D01*
Y87613D01*
X117364D01*
Y87565D01*
X117348D01*
Y87501D01*
X117332D01*
Y87452D01*
X117316D01*
Y87388D01*
X117300D01*
Y87340D01*
X117284D01*
Y87275D01*
X117268D01*
Y87227D01*
X117252D01*
Y87179D01*
X117236D01*
Y87114D01*
X117220D01*
Y87066D01*
X117203D01*
Y87002D01*
X117187D01*
Y86953D01*
X117171D01*
Y86889D01*
X117155D01*
Y86841D01*
X117139D01*
Y86810D01*
X117620D01*
Y86907D01*
X117637D01*
Y87019D01*
X117653D01*
Y87132D01*
X117669D01*
Y87245D01*
X117685D01*
Y87357D01*
X117701D01*
Y87470D01*
X117717D01*
Y87583D01*
X117733D01*
Y87695D01*
X117749D01*
Y87808D01*
X117765D01*
Y87855D01*
X117749D01*
Y87871D01*
X117733D01*
Y87903D01*
X117717D01*
Y87919D01*
X117701D01*
Y87935D01*
X117685D01*
Y87952D01*
X117669D01*
Y87969D01*
G37*
G36*
G01X120921D02*
X121663D01*
Y87855D01*
X121647D01*
Y87758D01*
X121631D01*
Y87646D01*
X121615D01*
Y87549D01*
X121599D01*
Y87436D01*
X121583D01*
Y87340D01*
X121567D01*
Y87227D01*
X121550D01*
Y87130D01*
X121534D01*
Y87018D01*
X121518D01*
Y86921D01*
X121502D01*
Y86808D01*
X121486D01*
Y86712D01*
X121470D01*
Y86599D01*
X121454D01*
Y86486D01*
X121438D01*
Y86390D01*
X121422D01*
Y86277D01*
X121406D01*
Y86181D01*
X121389D01*
Y86148D01*
X120808D01*
Y86247D01*
X120824D01*
Y86375D01*
X120840D01*
Y86504D01*
X120857D01*
Y86617D01*
X120873D01*
Y86746D01*
X120889D01*
Y86874D01*
X120905D01*
Y87003D01*
X120921D01*
Y87132D01*
X120937D01*
Y87261D01*
X120953D01*
Y87390D01*
X120969D01*
Y87502D01*
X120985D01*
Y87631D01*
X121001D01*
Y87760D01*
X121018D01*
Y87855D01*
X121001D01*
Y87871D01*
X120985D01*
Y87903D01*
X120969D01*
Y87919D01*
X120953D01*
Y87935D01*
X120937D01*
Y87952D01*
X120921D01*
Y87969D01*
G37*
G36*
G01X122145D02*
X124143D01*
Y87887D01*
X124126D01*
Y87758D01*
X124110D01*
Y87630D01*
X124094D01*
Y87501D01*
X124078D01*
Y87372D01*
X124062D01*
Y87227D01*
X124046D01*
Y87098D01*
X124030D01*
Y86969D01*
X124014D01*
Y86937D01*
X123998D01*
Y86905D01*
X123982D01*
Y86873D01*
X123965D01*
Y86857D01*
X123949D01*
Y86841D01*
X123933D01*
Y86825D01*
X123917D01*
Y86808D01*
X123901D01*
Y86792D01*
X123869D01*
Y86776D01*
X123837D01*
Y86760D01*
X122694D01*
Y86712D01*
X122677D01*
Y86615D01*
X122661D01*
Y86503D01*
X122645D01*
Y86406D01*
X122629D01*
Y86293D01*
X122613D01*
Y86181D01*
X122597D01*
Y86148D01*
X122016D01*
Y86247D01*
X122032D01*
Y86375D01*
X122048D01*
Y86504D01*
X122064D01*
Y86633D01*
X122080D01*
Y86762D01*
X122096D01*
Y86890D01*
X122112D01*
Y87019D01*
X122128D01*
Y87148D01*
X122145D01*
Y87277D01*
X122161D01*
Y87406D01*
X122177D01*
Y87535D01*
X122193D01*
Y87663D01*
X122209D01*
Y87808D01*
X122225D01*
Y87887D01*
X122209D01*
Y87903D01*
X122193D01*
Y87919D01*
X122177D01*
Y87935D01*
X122161D01*
Y87952D01*
X122145D01*
Y87969D01*
G37*
G36*
G01X124737D02*
X126558D01*
Y87871D01*
X126541D01*
Y87726D01*
X126525D01*
Y87597D01*
X126509D01*
Y87452D01*
X126493D01*
Y87436D01*
X125880D01*
Y87486D01*
X125896D01*
Y87599D01*
X125912D01*
Y87662D01*
X125318D01*
Y87581D01*
X125302D01*
Y87501D01*
X125286D01*
Y87420D01*
X125270D01*
Y87340D01*
X125253D01*
Y87259D01*
X125237D01*
Y87196D01*
X126461D01*
Y87098D01*
X126445D01*
Y86986D01*
X126429D01*
Y86873D01*
X126413D01*
Y86760D01*
X126397D01*
Y86647D01*
X126380D01*
Y86535D01*
X126364D01*
Y86438D01*
X126348D01*
Y86309D01*
X126332D01*
Y86277D01*
X126316D01*
Y86245D01*
X126300D01*
Y86229D01*
X126284D01*
Y86213D01*
X126268D01*
Y86197D01*
X126252D01*
Y86181D01*
X126219D01*
Y86164D01*
X126187D01*
Y86148D01*
X124495D01*
Y86263D01*
X124511D01*
Y86391D01*
X124527D01*
Y86520D01*
X124543D01*
Y86617D01*
X124577D01*
Y86585D01*
X124593D01*
Y86568D01*
X124609D01*
Y86552D01*
X124626D01*
Y86520D01*
X125767D01*
Y86617D01*
X125783D01*
Y86713D01*
X125799D01*
Y86810D01*
X125815D01*
Y86889D01*
X124592D01*
Y87003D01*
X124608D01*
Y87116D01*
X124624D01*
Y87229D01*
X124640D01*
Y87341D01*
X124656D01*
Y87454D01*
X124672D01*
Y87567D01*
X124688D01*
Y87679D01*
X124704D01*
Y87792D01*
X124721D01*
Y87905D01*
X124737D01*
Y87969D01*
G37*
G36*
G01X128488D02*
X129230D01*
Y87903D01*
X129214D01*
Y87791D01*
X129198D01*
Y87678D01*
X129182D01*
Y87565D01*
X129166D01*
Y87452D01*
X129150D01*
Y87340D01*
X129134D01*
Y87227D01*
X129117D01*
Y87114D01*
X129101D01*
Y87002D01*
X129085D01*
Y86873D01*
X129069D01*
Y86760D01*
X129053D01*
Y86647D01*
X129037D01*
Y86535D01*
X129021D01*
Y86456D01*
X130212D01*
Y86277D01*
X130196D01*
Y86148D01*
X128504D01*
Y86164D01*
X128472D01*
Y86181D01*
X128456D01*
Y86197D01*
X128440D01*
Y86229D01*
X128424D01*
Y86261D01*
X128407D01*
Y86325D01*
X128391D01*
Y86391D01*
X128407D01*
Y86520D01*
X128424D01*
Y86649D01*
X128440D01*
Y86778D01*
X128456D01*
Y86907D01*
X128472D01*
Y87035D01*
X128488D01*
Y87148D01*
X128504D01*
Y87277D01*
X128520D01*
Y87406D01*
X128536D01*
Y87535D01*
X128552D01*
Y87663D01*
X128568D01*
Y87792D01*
X128585D01*
Y87855D01*
X128568D01*
Y87871D01*
X128552D01*
Y87887D01*
X128536D01*
Y87903D01*
X128520D01*
Y87935D01*
X128504D01*
Y87952D01*
X128488D01*
Y87969D01*
G37*
G36*
G01X130742D02*
X132692D01*
Y87871D01*
X132676D01*
Y87710D01*
X132659D01*
Y87662D01*
X131307D01*
Y87630D01*
X131291D01*
Y87501D01*
X131275D01*
Y87372D01*
X131259D01*
Y87259D01*
X131243D01*
Y87130D01*
X131227D01*
Y87002D01*
X131210D01*
Y86873D01*
X131194D01*
Y86744D01*
X131178D01*
Y86615D01*
X131162D01*
Y86503D01*
X131146D01*
Y86456D01*
X132368D01*
Y86472D01*
X132384D01*
Y86488D01*
X132400D01*
Y86504D01*
X132432D01*
Y86520D01*
X132449D01*
Y86536D01*
X132465D01*
Y86552D01*
X132498D01*
Y86454D01*
X132482D01*
Y86342D01*
X132466D01*
Y86229D01*
X132450D01*
Y86148D01*
X130629D01*
Y86164D01*
X130597D01*
Y86181D01*
X130581D01*
Y86197D01*
X130565D01*
Y86213D01*
X130549D01*
Y86229D01*
X130533D01*
Y86277D01*
X130517D01*
Y86343D01*
X130533D01*
Y86456D01*
X130549D01*
Y86568D01*
X130565D01*
Y86697D01*
X130581D01*
Y86810D01*
X130597D01*
Y86939D01*
X130613D01*
Y87051D01*
X130629D01*
Y87164D01*
X130645D01*
Y87293D01*
X130661D01*
Y87406D01*
X130678D01*
Y87535D01*
X130694D01*
Y87647D01*
X130710D01*
Y87776D01*
X130726D01*
Y87889D01*
X130742D01*
Y87969D01*
G37*
G36*
G01X133157D02*
X135235D01*
Y87903D01*
X135219D01*
Y87774D01*
X135203D01*
Y87662D01*
X135187D01*
Y87549D01*
X135171D01*
Y87420D01*
X135155D01*
Y87308D01*
X135139D01*
Y87195D01*
X135123D01*
Y87066D01*
X135107D01*
Y86953D01*
X135091D01*
Y86841D01*
X135074D01*
Y86712D01*
X135058D01*
Y86599D01*
X135042D01*
Y86486D01*
X135026D01*
Y86358D01*
X135010D01*
Y86277D01*
X134994D01*
Y86245D01*
X134978D01*
Y86229D01*
X134962D01*
Y86213D01*
X134946D01*
Y86197D01*
X134930D01*
Y86181D01*
X134897D01*
Y86164D01*
X134865D01*
Y86148D01*
X133044D01*
Y86247D01*
X133060D01*
Y86375D01*
X133076D01*
Y86504D01*
X133093D01*
Y86633D01*
X133109D01*
Y86762D01*
X133125D01*
Y86890D01*
X133141D01*
Y87019D01*
X133157D01*
Y87132D01*
X133173D01*
Y87261D01*
X133189D01*
Y87390D01*
X133205D01*
Y87518D01*
X133221D01*
Y87647D01*
X133237D01*
Y87776D01*
X133254D01*
Y87855D01*
X133237D01*
Y87871D01*
X133221D01*
Y87887D01*
X133205D01*
Y87919D01*
X133189D01*
Y87935D01*
X133173D01*
Y87952D01*
X133157D01*
Y87969D01*
G37*
G36*
G01X115962Y87985D02*
X116157D01*
Y87871D01*
X116141D01*
Y87758D01*
X116125D01*
Y87646D01*
X116109D01*
Y87533D01*
X116093D01*
Y87420D01*
X116076D01*
Y87308D01*
X116060D01*
Y87179D01*
X116044D01*
Y87066D01*
X116028D01*
Y86953D01*
X116012D01*
Y86841D01*
X115996D01*
Y86728D01*
X115980D01*
Y86615D01*
X115964D01*
Y86503D01*
X115948D01*
Y86390D01*
X115932D01*
Y86277D01*
X115915D01*
Y86148D01*
X115302D01*
Y86263D01*
X115318D01*
Y86391D01*
X115334D01*
Y86504D01*
X115350D01*
Y86617D01*
X115366D01*
Y86729D01*
X115383D01*
Y86842D01*
X115399D01*
Y86955D01*
X115415D01*
Y87068D01*
X115431D01*
Y87180D01*
X115447D01*
Y87293D01*
X115463D01*
Y87406D01*
X115479D01*
Y87535D01*
X115495D01*
Y87581D01*
X115432D01*
Y87565D01*
X115320D01*
Y87549D01*
X115238D01*
Y87567D01*
X115254D01*
Y87679D01*
X115270D01*
Y87792D01*
X115286D01*
Y87889D01*
X115383D01*
Y87905D01*
X115495D01*
Y87921D01*
X115624D01*
Y87937D01*
X115737D01*
Y87953D01*
X115849D01*
Y87969D01*
X115962D01*
Y87985D01*
G37*
G36*
G01X113982Y88001D02*
X114064D01*
Y87952D01*
X114048D01*
Y87839D01*
X114032D01*
Y87710D01*
X114016D01*
Y87597D01*
X114000D01*
Y87485D01*
X113983D01*
Y87372D01*
X113967D01*
Y87259D01*
X113951D01*
Y87147D01*
X113935D01*
Y87018D01*
X113919D01*
Y86905D01*
X113903D01*
Y86792D01*
X113887D01*
Y86680D01*
X113871D01*
Y86567D01*
X113855D01*
Y86454D01*
X113839D01*
Y86342D01*
X113822D01*
Y86213D01*
X113806D01*
Y86148D01*
X113193D01*
Y86214D01*
X113209D01*
Y86327D01*
X113225D01*
Y86456D01*
X113241D01*
Y86568D01*
X113257D01*
Y86681D01*
X113273D01*
Y86794D01*
X113290D01*
Y86907D01*
X113306D01*
Y87019D01*
X113322D01*
Y87132D01*
X113338D01*
Y87245D01*
X113354D01*
Y87357D01*
X113370D01*
Y87470D01*
X113386D01*
Y87581D01*
X113323D01*
Y87565D01*
X113211D01*
Y87549D01*
X113145D01*
Y87631D01*
X113161D01*
Y87744D01*
X113177D01*
Y87856D01*
X113193D01*
Y87889D01*
X113290D01*
Y87905D01*
X113402D01*
Y87921D01*
X113515D01*
Y87937D01*
X113628D01*
Y87953D01*
X113740D01*
Y87969D01*
X113853D01*
Y87985D01*
X113982D01*
Y88001D01*
G37*
%LPC*%
G75*
G36*
G01X122822Y87630D02*
Y87662D01*
X123497D01*
Y87615D01*
X123481D01*
Y87518D01*
X123465D01*
Y87422D01*
X123449D01*
Y87309D01*
X123433D01*
Y87212D01*
X123416D01*
Y87116D01*
X123400D01*
Y87068D01*
X122758D01*
Y87179D01*
X122774D01*
Y87340D01*
X122790D01*
Y87485D01*
X122806D01*
Y87630D01*
X122822D01*
G37*
G36*
G01X133867Y87549D02*
Y87662D01*
X134622D01*
Y87647D01*
X134606D01*
Y87535D01*
X134590D01*
Y87438D01*
X134574D01*
Y87325D01*
X134558D01*
Y87229D01*
X134542D01*
Y87116D01*
X134525D01*
Y87019D01*
X134509D01*
Y86907D01*
X134493D01*
Y86810D01*
X134477D01*
Y86697D01*
X134461D01*
Y86601D01*
X134445D01*
Y86504D01*
X134429D01*
Y86456D01*
X133690D01*
Y86503D01*
X133706D01*
Y86599D01*
X133722D01*
Y86712D01*
X133738D01*
Y86808D01*
X133754D01*
Y86921D01*
X133770D01*
Y87018D01*
X133786D01*
Y87130D01*
X133803D01*
Y87243D01*
X133819D01*
Y87340D01*
X133835D01*
Y87452D01*
X133851D01*
Y87549D01*
X133867D01*
G37*
%LPD*%
G75*
G36*
G01X87750Y76800D02*
X88350D01*
Y75000D01*
X87750D01*
Y76800D01*
G37*
G36*
G01X94650D02*
X95250D01*
Y75000D01*
X94650D01*
Y76800D01*
G37*
G36*
G01X102890Y75420D02*
X104150D01*
Y74220D01*
X102890D01*
Y75420D01*
G37*
G36*
G01X96250D02*
X97510D01*
Y74220D01*
X96250D01*
Y75420D01*
G37*
G54D10*
G01X57940Y67640D02*
Y64880D01*
X62660D01*
Y67640D01*
G01X57940Y72360D02*
Y75120D01*
X62660D01*
Y72360D01*
G01X97840Y55260D02*
Y58020D01*
X102560D01*
Y55260D01*
G01X97840Y50540D02*
Y47780D01*
X102560D01*
Y50540D01*
G01X126860Y41880D02*
X122140D01*
Y52120D01*
X126860D01*
Y41880D01*
G01X122140Y64420D02*
X126860D01*
Y54180D01*
X122140D01*
Y64420D01*
G01X144120Y51360D02*
Y46640D01*
X133880D01*
Y51360D01*
X144120D01*
G01Y61360D02*
Y56640D01*
X133880D01*
Y61360D01*
X144120D01*
G01X150923Y83198D02*
Y87918D01*
X161163D01*
Y83198D01*
X150923D01*
G01Y91072D02*
Y95792D01*
X161163D01*
Y91072D01*
X150923D01*
G01Y75324D02*
Y80044D01*
X161163D01*
Y75324D01*
X150923D01*
G01X144540Y95720D02*
X149260D01*
Y85480D01*
X144540D01*
Y95720D01*
G01X161854Y88558D02*
X174854D01*
Y82558D01*
X161854D01*
Y88558D01*
G01Y80684D02*
X174854D01*
Y74684D01*
X161854D01*
Y80684D01*
G01Y96432D02*
X174854D01*
Y90432D01*
X161854D01*
Y96432D01*
G01X174000Y147000D02*
X151500D01*
Y141000D01*
X153000D01*
Y135000D01*
X151500D01*
Y111000D01*
X153000D01*
Y105000D01*
X151500D01*
Y99000D01*
X174000D01*
Y147000D01*
G01X174454Y88558D02*
Y82558D01*
G01X174254Y88558D02*
Y82558D01*
G01X173854Y88558D02*
Y82558D01*
G01X168745Y85540D02*
X167013Y87272D01*
G01D02*
Y83807D01*
G01D02*
X168745Y85540D01*
G01X174454Y80684D02*
Y74684D01*
G01X174254Y80684D02*
Y74684D01*
G01X173854Y80684D02*
Y74684D01*
G01X168745Y77666D02*
X167013Y79398D01*
G01D02*
Y75933D01*
G01D02*
X168745Y77666D01*
G01X174454Y96432D02*
Y90432D01*
G01X174254Y96432D02*
Y90432D01*
G01X173854Y96432D02*
Y90432D01*
G01X168745Y93414D02*
X167013Y95146D01*
G01D02*
Y91681D01*
G01D02*
X168745Y93414D01*
G54D11*
G01X69792Y60721D02*
X80242D01*
G01X69792D02*
Y65241D01*
G01X83972Y52602D02*
X78472D01*
G01X77772Y54602D02*
Y57602D01*
G01X77072Y54602D02*
Y57602D01*
G01X76472Y52602D02*
X70972D01*
Y53102D01*
Y59602D01*
X76472D01*
G01X78472D02*
X83972D01*
Y52602D01*
G01X69792Y79041D02*
X80242D01*
G01X69792Y74521D02*
Y79041D01*
G01X119310Y48772D02*
X106900D01*
G01Y57212D02*
Y48772D01*
G01X119310Y57212D02*
X106900D01*
G01X88050Y75300D02*
Y62100D01*
G01X94950Y75300D02*
Y62100D01*
G01X96550Y74520D02*
Y63680D01*
G01X103850Y74520D02*
Y63680D01*
G01X103090D02*
X103850D01*
G01X96550D02*
X97310D01*
G01X88050Y71080D02*
X94950D01*
G01X96750Y72710D02*
X103650D01*
G01X119310Y57212D02*
Y48772D01*
G01X135827Y141732D02*
X13780D01*
G03X5906Y133858I0J-7874D01*
G01Y43307D01*
G03X13780Y35433I7874J0D01*
G01X135827D01*
G03X143701Y43307I0J7874D01*
G01Y133858D01*
G03X135827Y141732I-7874J0D01*
G01X17402Y15748D02*
X9764D01*
X8583Y14567D01*
Y6929D01*
X9764Y5748D01*
X17402D01*
X18583Y6929D01*
Y14567D01*
X17402Y15748D01*
G01Y25748D02*
X9764D01*
X8583Y24567D01*
Y16929D01*
X9764Y15748D01*
X17402D01*
X18583Y16929D01*
Y24567D01*
X17402Y25748D01*
G01X27402Y15748D02*
X19764D01*
X18583Y14567D01*
Y6929D01*
X19764Y5748D01*
X27402D01*
X28583Y6929D01*
Y14567D01*
X27402Y15748D01*
G01Y25748D02*
X19764D01*
X18583Y24567D01*
Y16929D01*
X19764Y15748D01*
X27402D01*
X28583Y16929D01*
Y24567D01*
X27402Y25748D01*
G01X37402Y15748D02*
X29764D01*
X28583Y14567D01*
Y6929D01*
X29764Y5748D01*
X37402D01*
X38583Y6929D01*
Y14567D01*
X37402Y15748D01*
G01Y25748D02*
X29764D01*
X28583Y24567D01*
Y16929D01*
X29764Y15748D01*
X37402D01*
X38583Y16929D01*
Y24567D01*
X37402Y25748D01*
G01X29764Y161417D02*
X37402D01*
X38583Y162598D01*
Y170236D01*
X37402Y171417D01*
X29764D01*
X28583Y170236D01*
Y162598D01*
X29764Y161417D01*
G01Y151417D02*
X37402D01*
X38583Y152598D01*
Y160236D01*
X37402Y161417D01*
X29764D01*
X28583Y160236D01*
Y152598D01*
X29764Y151417D01*
G01X19764Y161417D02*
X27402D01*
X28583Y162598D01*
Y170236D01*
X27402Y171417D01*
X19764D01*
X18583Y170236D01*
Y162598D01*
X19764Y161417D01*
G01Y151417D02*
X27402D01*
X28583Y152598D01*
Y160236D01*
X27402Y161417D01*
X19764D01*
X18583Y160236D01*
Y152598D01*
X19764Y151417D01*
G01X9764D02*
X17402D01*
X18583Y152598D01*
Y160236D01*
X17402Y161417D01*
X9764D01*
X8583Y160236D01*
Y152598D01*
X9764Y151417D01*
G01Y161417D02*
X17402D01*
X18583Y162598D01*
Y170236D01*
X17402Y171417D01*
X9764D01*
X8583Y170236D01*
Y162598D01*
X9764Y161417D01*
G01X47402Y15748D02*
X39764D01*
X38583Y14567D01*
Y6929D01*
X39764Y5748D01*
X47402D01*
X48583Y6929D01*
Y14567D01*
X47402Y15748D01*
G01Y25748D02*
X39764D01*
X38583Y24567D01*
Y16929D01*
X39764Y15748D01*
X47402D01*
X48583Y16929D01*
Y24567D01*
X47402Y25748D01*
G01X57402Y15748D02*
X49764D01*
X48583Y14567D01*
Y6929D01*
X49764Y5748D01*
X57402D01*
X58583Y6929D01*
Y14567D01*
X57402Y15748D01*
G01Y25748D02*
X49764D01*
X48583Y24567D01*
Y16929D01*
X49764Y15748D01*
X57402D01*
X58583Y16929D01*
Y24567D01*
X57402Y25748D01*
G01X67402Y15748D02*
X59764D01*
X58583Y14567D01*
Y6929D01*
X59764Y5748D01*
X67402D01*
X68583Y6929D01*
Y14567D01*
X67402Y15748D01*
G01Y25748D02*
X59764D01*
X58583Y24567D01*
Y16929D01*
X59764Y15748D01*
X67402D01*
X68583Y16929D01*
Y24567D01*
X67402Y25748D01*
G01X59764Y161417D02*
X67402D01*
X68583Y162598D01*
Y170236D01*
X67402Y171417D01*
X59764D01*
X58583Y170236D01*
Y162598D01*
X59764Y161417D01*
G01Y151417D02*
X67402D01*
X68583Y152598D01*
Y160236D01*
X67402Y161417D01*
X59764D01*
X58583Y160236D01*
Y152598D01*
X59764Y151417D01*
G01X49764Y161417D02*
X57402D01*
X58583Y162598D01*
Y170236D01*
X57402Y171417D01*
X49764D01*
X48583Y170236D01*
Y162598D01*
X49764Y161417D01*
G01Y151417D02*
X57402D01*
X58583Y152598D01*
Y160236D01*
X57402Y161417D01*
X49764D01*
X48583Y160236D01*
Y152598D01*
X49764Y151417D01*
G01X39764Y161417D02*
X47402D01*
X48583Y162598D01*
Y170236D01*
X47402Y171417D01*
X39764D01*
X38583Y170236D01*
Y162598D01*
X39764Y161417D01*
G01Y151417D02*
X47402D01*
X48583Y152598D01*
Y160236D01*
X47402Y161417D01*
X39764D01*
X38583Y160236D01*
Y152598D01*
X39764Y151417D01*
G01X77402Y15748D02*
X69764D01*
X68583Y14567D01*
Y6929D01*
X69764Y5748D01*
X77402D01*
X78583Y6929D01*
Y14567D01*
X77402Y15748D01*
G01Y25748D02*
X69764D01*
X68583Y24567D01*
Y16929D01*
X69764Y15748D01*
X77402D01*
X78583Y16929D01*
Y24567D01*
X77402Y25748D01*
G01X87402Y15748D02*
X79764D01*
X78583Y14567D01*
Y6929D01*
X79764Y5748D01*
X87402D01*
X88583Y6929D01*
Y14567D01*
X87402Y15748D01*
G01Y25748D02*
X79764D01*
X78583Y24567D01*
Y16929D01*
X79764Y15748D01*
X87402D01*
X88583Y16929D01*
Y24567D01*
X87402Y25748D01*
G01X79764Y161417D02*
X87402D01*
X88583Y162598D01*
Y170236D01*
X87402Y171417D01*
X79764D01*
X78583Y170236D01*
Y162598D01*
X79764Y161417D01*
G01Y151417D02*
X87402D01*
X88583Y152598D01*
Y160236D01*
X87402Y161417D01*
X79764D01*
X78583Y160236D01*
Y152598D01*
X79764Y151417D01*
G01X69764Y161417D02*
X77402D01*
X78583Y162598D01*
Y170236D01*
X77402Y171417D01*
X69764D01*
X68583Y170236D01*
Y162598D01*
X69764Y161417D01*
G01Y151417D02*
X77402D01*
X78583Y152598D01*
Y160236D01*
X77402Y161417D01*
X69764D01*
X68583Y160236D01*
Y152598D01*
X69764Y151417D01*
G01X97402Y15748D02*
X89764D01*
X88583Y14567D01*
Y6929D01*
X89764Y5748D01*
X97402D01*
X98583Y6929D01*
Y14567D01*
X97402Y15748D01*
G01Y25748D02*
X89764D01*
X88583Y24567D01*
Y16929D01*
X89764Y15748D01*
X97402D01*
X98583Y16929D01*
Y24567D01*
X97402Y25748D01*
G01X107402Y15748D02*
X99764D01*
X98583Y14567D01*
Y6929D01*
X99764Y5748D01*
X107402D01*
X108583Y6929D01*
Y14567D01*
X107402Y15748D01*
G01Y25748D02*
X99764D01*
X98583Y24567D01*
Y16929D01*
X99764Y15748D01*
X107402D01*
X108583Y16929D01*
Y24567D01*
X107402Y25748D01*
G01X117402Y15748D02*
X109764D01*
X108583Y14567D01*
Y6929D01*
X109764Y5748D01*
X117402D01*
X118583Y6929D01*
Y14567D01*
X117402Y15748D01*
G01Y25748D02*
X109764D01*
X108583Y24567D01*
Y16929D01*
X109764Y15748D01*
X117402D01*
X118583Y16929D01*
Y24567D01*
X117402Y25748D01*
G01X109764Y161417D02*
X117402D01*
X118583Y162598D01*
Y170236D01*
X117402Y171417D01*
X109764D01*
X108583Y170236D01*
Y162598D01*
X109764Y161417D01*
G01Y151417D02*
X117402D01*
X118583Y152598D01*
Y160236D01*
X117402Y161417D01*
X109764D01*
X108583Y160236D01*
Y152598D01*
X109764Y151417D01*
G01X99764Y161417D02*
X107402D01*
X108583Y162598D01*
Y170236D01*
X107402Y171417D01*
X99764D01*
X98583Y170236D01*
Y162598D01*
X99764Y161417D01*
G01Y151417D02*
X107402D01*
X108583Y152598D01*
Y160236D01*
X107402Y161417D01*
X99764D01*
X98583Y160236D01*
Y152598D01*
X99764Y151417D01*
G01X89764Y161417D02*
X97402D01*
X98583Y162598D01*
Y170236D01*
X97402Y171417D01*
X89764D01*
X88583Y170236D01*
Y162598D01*
X89764Y161417D01*
G01Y151417D02*
X97402D01*
X98583Y152598D01*
Y160236D01*
X97402Y161417D01*
X89764D01*
X88583Y160236D01*
Y152598D01*
X89764Y151417D01*
G01X127402Y15748D02*
X119764D01*
X118583Y14567D01*
Y6929D01*
X119764Y5748D01*
X127402D01*
X128583Y6929D01*
Y14567D01*
X127402Y15748D01*
G01Y25748D02*
X119764D01*
X118583Y24567D01*
Y16929D01*
X119764Y15748D01*
X127402D01*
X128583Y16929D01*
Y24567D01*
X127402Y25748D01*
G01X137402Y15748D02*
X129764D01*
X128583Y14567D01*
Y6929D01*
X129764Y5748D01*
X137402D01*
X138583Y6929D01*
Y14567D01*
X137402Y15748D01*
G01Y25748D02*
X129764D01*
X128583Y24567D01*
Y16929D01*
X129764Y15748D01*
X137402D01*
X138583Y16929D01*
Y24567D01*
X137402Y25748D01*
G01X129764Y161417D02*
X137402D01*
X138583Y162598D01*
Y170236D01*
X137402Y171417D01*
X129764D01*
X128583Y170236D01*
Y162598D01*
X129764Y161417D01*
G01Y151417D02*
X137402D01*
X138583Y152598D01*
Y160236D01*
X137402Y161417D01*
X129764D01*
X128583Y160236D01*
Y152598D01*
X129764Y151417D01*
G01X119764Y161417D02*
X127402D01*
X128583Y162598D01*
Y170236D01*
X127402Y171417D01*
X119764D01*
X118583Y170236D01*
Y162598D01*
X119764Y161417D01*
G01Y151417D02*
X127402D01*
X128583Y152598D01*
Y160236D01*
X127402Y161417D01*
X119764D01*
X118583Y160236D01*
Y152598D01*
X119764Y151417D01*
G01X147402Y15748D02*
X139764D01*
X138583Y14567D01*
Y6929D01*
X139764Y5748D01*
X147402D01*
X148583Y6929D01*
Y14567D01*
X147402Y15748D01*
G01Y25748D02*
X139764D01*
X138583Y24567D01*
Y16929D01*
X139764Y15748D01*
X147402D01*
X148583Y16929D01*
Y24567D01*
X147402Y25748D01*
G01X157402Y15748D02*
X149764D01*
X148583Y14567D01*
Y6929D01*
X149764Y5748D01*
X157402D01*
X158583Y6929D01*
Y14567D01*
X157402Y15748D01*
G01Y25748D02*
X149764D01*
X148583Y24567D01*
Y16929D01*
X149764Y15748D01*
X157402D01*
X158583Y16929D01*
Y24567D01*
X157402Y25748D01*
G01X167402D02*
X159764D01*
X158583Y24567D01*
Y16929D01*
X159764Y15748D01*
X167402D01*
X168583Y16929D01*
Y24567D01*
X167402Y25748D01*
G01Y15748D02*
X159764D01*
X158583Y14567D01*
Y6929D01*
X159764Y5748D01*
X167402D01*
X168583Y6929D01*
Y14567D01*
X167402Y15748D01*
G01X159764Y161417D02*
X167402D01*
X168583Y162598D01*
Y170236D01*
X167402Y171417D01*
X159764D01*
X158583Y170236D01*
Y162598D01*
X159764Y161417D01*
G01Y151417D02*
X167402D01*
X168583Y152598D01*
Y160236D01*
X167402Y161417D01*
X159764D01*
X158583Y160236D01*
Y152598D01*
X159764Y151417D01*
G01X149764Y161417D02*
X157402D01*
X158583Y162598D01*
Y170236D01*
X157402Y171417D01*
X149764D01*
X148583Y170236D01*
Y162598D01*
X149764Y161417D01*
G01Y151417D02*
X157402D01*
X158583Y152598D01*
Y160236D01*
X157402Y161417D01*
X149764D01*
X148583Y160236D01*
Y152598D01*
X149764Y151417D01*
G01X139764Y161417D02*
X147402D01*
X148583Y162598D01*
Y170236D01*
X147402Y171417D01*
X139764D01*
X138583Y170236D01*
Y162598D01*
X139764Y161417D01*
G01Y151417D02*
X147402D01*
X148583Y152598D01*
Y160236D01*
X147402Y161417D01*
X139764D01*
X138583Y160236D01*
Y152598D01*
X139764Y151417D01*
G54D12*
G01X58720Y69610D02*
X61880D01*
G01X58720Y70390D02*
X61880D01*
G01X98620Y52510D02*
X101780D01*
G01X98620Y53290D02*
X101780D01*
G01X123320Y58910D02*
Y59690D01*
X125680D01*
Y58910D01*
X123320D01*
G01Y59690D02*
Y59300D01*
X122140D01*
G01X125680Y58910D02*
Y59300D01*
X126860D01*
G01X125680Y47390D02*
Y46610D01*
X123320D01*
Y47390D01*
X125680D01*
G01Y46610D02*
Y47000D01*
X126860D01*
G01X123320Y47390D02*
Y47000D01*
X122140D01*
G01X138610Y50180D02*
X139390D01*
Y47820D01*
X138610D01*
Y50180D01*
G01X139390D02*
X139000D01*
Y51360D01*
G01X138610Y47820D02*
X139000D01*
Y46640D01*
G01X138610Y60180D02*
X139390D01*
Y57820D01*
X138610D01*
Y60180D01*
G01X139390D02*
X139000D01*
Y61360D01*
G01X138610Y57820D02*
X139000D01*
Y56640D01*
G01X156434Y84378D02*
X155653D01*
Y86738D01*
X156434D01*
Y84378D01*
G01X155653D02*
X156043D01*
Y83198D01*
G01X156434Y86738D02*
X156043D01*
Y87918D01*
G01X156434Y92252D02*
X155653D01*
Y94612D01*
X156434D01*
Y92252D01*
G01X155653D02*
X156043D01*
Y91072D01*
G01X156434Y94612D02*
X156043D01*
Y95792D01*
G01X156434Y76504D02*
X155653D01*
Y78864D01*
X156434D01*
Y76504D01*
G01X155653D02*
X156043D01*
Y75324D01*
G01X156434Y78864D02*
X156043D01*
Y80044D01*
G01X145720Y90210D02*
Y90990D01*
X148080D01*
Y90210D01*
X145720D01*
G01Y90990D02*
Y90600D01*
X144540D01*
G01X148080Y90210D02*
Y90600D01*
X149260D01*
G54D13*
G01X121940Y77820D02*
X110800D01*
Y70180D01*
X125200D01*
Y77820D01*
X121940D01*
G54D14*
G01X30441Y43933D02*
Y40135D01*
G01X26894D02*
X30441D01*
G01X14441D02*
X14985D01*
G01X14441Y43933D02*
Y40135D01*
G01X46000Y137000D02*
X11000D01*
Y84000D01*
X60000D01*
G01X30441Y78135D02*
Y74336D01*
G01X26894Y78135D02*
X30441D01*
G01X14441D02*
Y74336D01*
G01Y78135D02*
X14985D01*
G01X39280Y107580D02*
G03X85870Y90060I29003J6419D01*
G01X85380Y138290D02*
G03X39680Y120020I-16591J-24790D01*
G01X100000Y84000D02*
X137000D01*
Y96000D01*
G01X98290Y85000D02*
Y107580D01*
G01Y84500D02*
Y85000D01*
G01X85790Y84500D02*
X98290D01*
G01X85790D02*
Y90180D01*
G01X105700Y87700D02*
X106700D01*
G01X100700Y96700D02*
Y91700D01*
G01X98290Y120420D02*
Y143500D01*
G01X109200Y96700D02*
X111700D01*
G01X103200D02*
X100700D01*
G01X100000Y137000D02*
X118000D01*
G01X85790Y138000D02*
Y143500D01*
G01D02*
X98290D01*
G01X111700Y96700D02*
Y91700D01*
G01X135953Y99110D02*
Y102909D01*
G01Y99110D02*
X135408D01*
G01X119953D02*
Y102909D01*
G01X123499Y99110D02*
X119953D01*
G01X135953Y137110D02*
X135408D01*
G01X135953Y133312D02*
Y137110D01*
G01X123499D02*
X119953D01*
G01Y133312D02*
Y137110D01*
G01X166420Y33410D02*
X159080D01*
G01X166420Y68600D02*
X159080D01*
G01X181060Y33410D02*
Y68600D01*
G01Y33410D02*
X175220D01*
G01X181060Y68600D02*
X175220D01*
G54D15*
G01X117634Y54248D02*
G03I-587J0D01*
G01X119968Y61299D02*
G03I-589J0D01*
M02*
